<svg width="12" height="12" viewBox="0 0 12 12" fill="none" xmlns="http://www.w3.org/2000/svg">
<path d="M0 6.34676C0 6.11086 0 5.88058 0 5.64469C0.0112406 5.56044 0.0168609 5.47619 0.0281015 5.39194C0.17423 4.10012 0.663196 2.95995 1.53434 1.99951C2.45607 0.977289 3.60262 0.336996 4.96835 0.0954821C5.19316 0.0561659 5.4236 0.0336996 5.64841 0C5.88446 0 6.1149 0 6.35095 0C6.39029 0.0056166 6.42401 0.0168495 6.46335 0.0224661C6.72751 0.0617823 6.99166 0.084249 7.2502 0.140415C8.70024 0.454945 9.88612 1.20195 10.7741 2.38706C11.8701 3.84176 12.2298 5.4818 11.8588 7.26227C11.561 8.6945 10.8079 9.86275 9.64445 10.7558C8.39112 11.7162 6.96356 12.1206 5.3955 11.969C4.10283 11.8454 2.9619 11.3343 1.99521 10.4693C0.966693 9.54822 0.325978 8.40244 0.0899248 7.0376C0.056203 6.80732 0.0281015 6.57704 0 6.34676ZM11.072 5.99853C11.072 3.20146 8.8014 0.937973 6.00249 0.932356C3.2092 0.932356 0.938591 3.19585 0.932971 5.99292C0.927351 8.78998 3.2092 11.0703 6.00811 11.0647C8.80702 11.0591 11.072 8.78998 11.072 5.99853Z" fill="white"/>
<path d="M6.46947 4.49378C6.46947 4.88694 6.46947 5.28011 6.46947 5.67888C6.46947 5.76875 6.49195 5.82492 6.57063 5.88108C7.0877 6.26301 7.59353 6.65056 8.1106 7.03249C8.28483 7.16167 8.36913 7.32455 8.31855 7.53798C8.23986 7.86936 7.8633 7.99854 7.58229 7.79634C7.26193 7.56044 6.94157 7.31893 6.62683 7.08303C6.3402 6.8696 6.05356 6.65056 5.76131 6.43713C5.6208 6.33041 5.54211 6.19561 5.54211 6.0215C5.54211 5.10599 5.54211 4.18487 5.54211 3.26936C5.54211 3.02785 5.69948 2.83688 5.91868 2.79757C6.13225 2.75825 6.35144 2.87058 6.43012 3.0784C6.45822 3.15141 6.46947 3.23566 6.46947 3.31991C6.46947 3.70746 6.46947 4.10062 6.46947 4.49378Z" fill="white"/>
</svg>
