<svg width="14" height="14" viewBox="0 0 14 14" fill="none" xmlns="http://www.w3.org/2000/svg">
<path fill-rule="evenodd" clip-rule="evenodd" d="M0 7.00002C0 3.13402 3.13402 0 7.00002 0C10.866 0 14 3.13402 14 7.00002C14 10.866 10.866 14.0001 7.00002 14.0001C3.13402 14.0001 0 10.866 0 7.00002ZM7.00002 1.0041C3.68857 1.0041 1.00411 3.68857 1.00411 7.00002C1.00411 10.3114 3.68857 12.996 7.00002 12.996C10.3114 12.996 12.9959 10.3114 12.9959 7.00002C12.9959 3.68857 10.3114 1.0041 7.00002 1.0041ZM7.79276 10.1712C7.79276 10.609 7.43785 10.9639 7.00004 10.9639C6.56223 10.9639 6.20733 10.609 6.20733 10.1712C6.20733 9.73338 6.56223 9.37846 7.00004 9.37846C7.43785 9.37846 7.79276 9.73338 7.79276 10.1712ZM5.46757 5.67912C5.46757 4.96263 6.08597 4.27866 7.00015 4.27866C7.91434 4.27866 8.53273 4.96263 8.53273 5.67912C8.53273 6.19828 8.24734 6.46351 7.75528 6.76244C7.70036 6.7958 7.63702 6.83259 7.56926 6.87194L7.56919 6.87198C7.37556 6.98443 7.14585 7.11784 6.97316 7.25239C6.717 7.45197 6.41883 7.77398 6.41883 8.26866C6.41884 8.58972 6.6791 8.84998 7.00016 8.84998C7.31974 8.84998 7.5791 8.5921 7.58146 8.27307L7.58204 8.27215C7.59121 8.25767 7.61836 8.22358 7.68775 8.16952C7.79502 8.08593 7.91447 8.01671 8.07363 7.92447L8.07368 7.92444C8.15666 7.87635 8.25045 7.822 8.35893 7.7561C8.92382 7.41293 9.69535 6.84581 9.69535 5.67912C9.69535 4.28171 8.51696 3.11601 7.00015 3.11601C5.48335 3.11601 4.30492 4.28171 4.30492 5.67912C4.30492 6.00018 4.5652 6.26045 4.88625 6.26045C5.20731 6.26045 5.46757 6.00018 5.46757 5.67912Z" fill="#FFF8B6"/>
</svg>
