<svg id="圖層_1" data-name="圖層 1" xmlns="http://www.w3.org/2000/svg" viewBox="0 0 55 55"><defs><style>.cls-1{fill:#fff;}</style></defs><title>2020-09-30-主題教材-清稿修改</title><path class="cls-1" d="M19.2,31.4l4.5-4.3c5.8,4.8,6.6,4.8,12-.6l5.4-5.4c2.1-2.2,2.7-4.7.4-7s-5.3-2.6-7.5-.3L30.8,17a10.3,10.3,0,0,0-7.2-1.9C28.3,7.2,35.1,3.5,41.1,5.6c9,2.9,11.8,12.9,5.5,19.9a97.7,97.7,0,0,1-9.1,9.1C31.5,39.8,23.7,38.4,19.2,31.4Z"/><path class="cls-1" d="M32,39.5c-5.5,8.7-12.5,12.2-19.1,9.7S2.4,36.6,7.8,30.2A96.3,96.3,0,0,1,17.9,20.1c5.7-4.9,13.7-3.3,18,3.8l-4.4,4.5-2.6-2.5c-2.2-1.9-4.6-2.1-6.8-.1s-6.1,5.3-8.4,8.6c-1,1.5-1,4.9,0,6.6s4.5,2.2,6.9.4a34.9,34.9,0,0,0,3.7-3.5A10.8,10.8,0,0,0,32,39.5Z"/></svg>