<svg id="圖層_1" data-name="圖層 1" xmlns="http://www.w3.org/2000/svg" viewBox="0 0 55 55"><defs><style>.cls-1{fill:#fff;}</style></defs><title>2020-09-30-主題教材-清稿修改</title><path class="cls-1" d="M18.9,21.1a5,5,0,0,1,5-5H36.1V9.6a2.2,2.2,0,0,0-2.2-2.1H26.7a5.7,5.7,0,0,0-4.9-2.9,5.9,5.9,0,0,0-5,2.9H9.6A2.2,2.2,0,0,0,7.5,9.6v30a2.2,2.2,0,0,0,2.1,2.2h9.3ZM21.8,8.2a2.1,2.1,0,0,1,2.1,2.2,2.1,2.1,0,0,1-2.1,2.1,2.2,2.2,0,0,1-2.2-2.1A2.2,2.2,0,0,1,21.8,8.2ZM38.2,30.4h9.3V48.2a2.2,2.2,0,0,1-2.1,2.2H23.9a2.1,2.1,0,0,1-2.1-2.2V21.1a2.1,2.1,0,0,1,2.1-2.2H36.1v9.3A2.1,2.1,0,0,0,38.2,30.4ZM47.5,27v.5H38.9V18.9h.6a2.3,2.3,0,0,1,1.5.7l5.9,5.8A2.3,2.3,0,0,1,47.5,27Z"/></svg>