<svg id="圖層_1" data-name="圖層 1" xmlns="http://www.w3.org/2000/svg" viewBox="0 0 1310 526.5"><defs><style>.cls-1{fill:#feffd3;}.cls-2{opacity:0.8;}.cls-3{fill:none;stroke:#740043;stroke-linecap:round;stroke-linejoin:round;stroke-width:5px;stroke-dasharray:11.97 19.95 11.97 19.95 11.97 19.95;}</style></defs><title>2020-08-21-幼兒專區-清稿-v5</title><path class="cls-1" d="M465.9,61.1S317.7,128.5,234.6,93.7s-172.5,33.1-203.1,82c-59.2,94.5-66.7,335.5,268,281,0,0,145-19.1,224.8,37.9,75.3,53.9,276,34.4,331.9-20.6a67.2,67.2,0,0,1,28.6-17c37.8-11.1,123.5-27.9,213.4,10.9,107,46.2,162.3-87.9,174.6-118.4,20.9-51.3,87.5-206.2-33.1-256.4C1105.2,37.1,631.5-20,465.9,61.1Z"/><g class="cls-2"><path class="cls-3" d="M465.4,42s-145,66-226.3,31.9S45.6,139,40.3,154.2C5.6,253.6-25,482.5,302.6,429.2c0,0,141.9-18.7,220,37.1,74,52.9,271.6,36.9,325.4-17.3a58.1,58.1,0,0,1,24.6-15.3c35.5-10.8,121.4-32.6,211.7,6.4,118.1,51,173-121.9,173-121.9s97.2-190.1-34.5-244.9S627.5-37.4,465.4,42Z"/></g></svg>