<svg id="圖層_1" data-name="圖層 1" xmlns="http://www.w3.org/2000/svg" viewBox="0 0 314.9 500"><defs><style>.cls-1{fill:#feffd3;}.cls-2{fill:#740043;opacity:0.8;}</style></defs><title>2020-08-21-幼兒專區-清稿-v5</title><path class="cls-1" d="M31.2,322.2S72.3,378.8,51,410.5s20.2,65.8,50,77.5c57.6,22.6,204.5,25.4,171.3-102.3,0,0-11.6-55.3,23.2-85.8,32.8-28.8,20.9-105.4-12.6-126.7a27.4,27.4,0,0,1-10.4-10.9c-6.8-14.5-17-47.2,6.7-81.5C307.3,40,225.6,18.9,207,14.2,175.7,6.2,81.3-19.2,50.7,26.8,16.5,78.2-18.3,259,31.2,322.2Z"/><path class="cls-2" d="M164.4,495h-6.8a2.4,2.4,0,0,1-2.4-2.6,2.3,2.3,0,0,1,2.5-2.4c4.1.1,8,.1,11.9,0a2.6,2.6,0,0,1,2.6,2.5,2.5,2.5,0,0,1-2.4,2.5Zm-26.7-1.3h-.2l-12.1-1.3a2.5,2.5,0,0,1,.7-5c3.9.5,7.9,1,11.8,1.3a2.5,2.5,0,0,1,2.3,2.7A2.5,2.5,0,0,1,137.7,493.7Zm52-.1a2.5,2.5,0,0,1-.3-5c4-.5,8-1.1,11.7-1.8a2.5,2.5,0,0,1,2.9,2,2.4,2.4,0,0,1-2,2.9c-3.8.8-7.9,1.4-12,1.9ZM106,489.3h-.5l-11.2-2.2-.9-.3a2.6,2.6,0,0,1-1.6-3.2,2.4,2.4,0,0,1,3.2-1.5h.4l11,2.2a2.4,2.4,0,0,1,2,2.9A2.5,2.5,0,0,1,106,489.3Zm114.9-2.7a2.7,2.7,0,0,1-2.4-1.7,2.6,2.6,0,0,1,1.5-3.2,80.3,80.3,0,0,0,10.7-4.7,2.6,2.6,0,0,1,3.4,1.1,2.5,2.5,0,0,1-1.1,3.4,89.4,89.4,0,0,1-11.3,4.9ZM77.2,476.4a2.5,2.5,0,0,1-1.5-.5c-3.3-2.5-6.4-5.1-9.5-7.8a2.6,2.6,0,0,1,3.4-3.8c2.9,2.7,6,5.2,9.1,7.6a2.5,2.5,0,0,1,.5,3.5A2.8,2.8,0,0,1,77.2,476.4Zm171-6.1a2.3,2.3,0,0,1-1.8-.8,2.4,2.4,0,0,1,.1-3.5,61.6,61.6,0,0,0,7.5-8.7,2.4,2.4,0,0,1,3.4-.6,2.5,2.5,0,0,1,.7,3.5,65.8,65.8,0,0,1-8.2,9.4A2.2,2.2,0,0,1,248.2,470.3ZM54.1,454.2a2.7,2.7,0,0,1-2-.9A74.1,74.1,0,0,1,45.2,443a2.5,2.5,0,1,1,4.3-2.5,68.7,68.7,0,0,0,6.6,9.6,2.8,2.8,0,0,1-.4,3.6A3.3,3.3,0,0,1,54.1,454.2Zm210.4-11h-.7a2.5,2.5,0,0,1-1.7-3.1,80.7,80.7,0,0,0,2.2-11.3,2.5,2.5,0,0,1,2.8-2.2,2.5,2.5,0,0,1,2.2,2.7,75.3,75.3,0,0,1-2.4,12.2A2.5,2.5,0,0,1,264.5,443.2ZM41.6,425.3h0a2.5,2.5,0,0,1-2.5-2.5,28,28,0,0,1,3.1-12.7,2.5,2.5,0,0,1,3.4-1,2.4,2.4,0,0,1,1,3.3,23.1,23.1,0,0,0-2.5,10.4A2.5,2.5,0,0,1,41.6,425.3Zm225.3-13.8a2.5,2.5,0,0,1-2.5-2.3,102.2,102.2,0,0,0-1.6-11.7,2.5,2.5,0,0,1,5-.9c.7,4.2,1.3,8.3,1.6,12.2a2.6,2.6,0,0,1-2.3,2.7ZM51.6,395.3h-.3a2.5,2.5,0,0,1-2.2-2.8,44.1,44.1,0,0,0,.3-5.2,44,44,0,0,0-.4-6.2,2.5,2.5,0,0,1,5-.6,52.7,52.7,0,0,1,.4,6.8,56.3,56.3,0,0,1-.3,5.8A2.6,2.6,0,0,1,51.6,395.3Zm209.9-15.4a2.4,2.4,0,0,1-2.5-2.2c-.5-4-.7-8.1-.8-12.2a2.6,2.6,0,0,1,2.5-2.6h0a2.5,2.5,0,0,1,2.5,2.5c.1,4,.3,7.9.7,11.8a2.4,2.4,0,0,1-2.2,2.7Zm-214.6-16a2.6,2.6,0,0,1-2.4-1.7c-1.2-3.6-2.7-7.2-4.4-11a2.5,2.5,0,1,1,4.5-2c1.8,3.8,3.3,7.7,4.6,11.3a2.4,2.4,0,0,1-1.5,3.2ZM262,348h-.3a2.6,2.6,0,0,1-2.1-2.9,75,75,0,0,1,2.7-12,2.4,2.4,0,0,1,3.1-1.7,2.5,2.5,0,0,1,1.7,3.1,79.1,79.1,0,0,0-2.6,11.4A2.5,2.5,0,0,1,262,348ZM33,335a2.7,2.7,0,0,1-2.1-1.2c-3.6-6.1-6.4-9.9-6.4-10a2.4,2.4,0,0,1,.5-3.5,2.5,2.5,0,0,1,3.5.6c.1.1,2.9,4,6.7,10.3a2.5,2.5,0,0,1-.9,3.4A2,2,0,0,1,33,335Zm239.6-17a3.3,3.3,0,0,1-1.3-.4,2.6,2.6,0,0,1-.8-3.4,68.1,68.1,0,0,1,7.4-10,2.5,2.5,0,0,1,3.6-.2,2.4,2.4,0,0,1,.1,3.5,58.5,58.5,0,0,0-6.8,9.3A2.7,2.7,0,0,1,272.6,318ZM16.4,307.9a2.5,2.5,0,0,1-2.3-1.5A108.3,108.3,0,0,1,9.7,295a2.5,2.5,0,0,1,1.5-3.2,2.6,2.6,0,0,1,3.2,1.6,109.4,109.4,0,0,0,4.3,11,2.6,2.6,0,0,1-1.3,3.3Zm276.9-14.2a2.7,2.7,0,0,1-1.4-.5,2.5,2.5,0,0,1-.7-3.4,54.9,54.9,0,0,0,5.4-10.2,2.5,2.5,0,0,1,3.3-1.4,2.5,2.5,0,0,1,1.3,3.3,60.3,60.3,0,0,1-5.8,11A2.5,2.5,0,0,1,293.3,293.7ZM7,277.3a2.5,2.5,0,0,1-2.5-2c-.8-3.8-1.4-7.8-2-12a2.5,2.5,0,0,1,2.1-2.8,2.4,2.4,0,0,1,2.8,2.1c.6,4.1,1.3,8,2,11.7a2.5,2.5,0,0,1-1.9,3Zm297-13.6h-.4a2.5,2.5,0,0,1-2.1-2.8,89.4,89.4,0,0,0,.9-11.7,2.5,2.5,0,0,1,2.6-2.4,2.3,2.3,0,0,1,2.4,2.5,122.7,122.7,0,0,1-.9,12.3A2.6,2.6,0,0,1,304,263.7ZM3,245.6a2.6,2.6,0,0,1-2.5-2.4c-.2-3.9-.4-8-.5-12.1a2.5,2.5,0,0,1,2.4-2.5A2.4,2.4,0,0,1,5,231c.1,4,.3,8,.5,11.9a2.6,2.6,0,0,1-2.3,2.7Zm300.6-13.8a2.6,2.6,0,0,1-2.5-2.1,106.5,106.5,0,0,0-2.4-11.5,2.5,2.5,0,0,1,1.7-3.1,2.6,2.6,0,0,1,3.1,1.8,115.9,115.9,0,0,1,2.5,12,2.6,2.6,0,0,1-2,2.9ZM2.6,213.5H2.5a2.4,2.4,0,0,1-2.4-2.6c.1-3.9.3-8,.5-12a2.6,2.6,0,0,1,2.7-2.4,2.5,2.5,0,0,1,2.3,2.7c-.2,4-.4,8-.5,11.9A2.5,2.5,0,0,1,2.6,213.5Zm291.3-12.1a2.5,2.5,0,0,1-2.2-1.4,62.7,62.7,0,0,0-6.1-9.8,2.5,2.5,0,0,1,.5-3.5,2.4,2.4,0,0,1,3.5.5,72.2,72.2,0,0,1,6.6,10.5,2.6,2.6,0,0,1-1.1,3.4A2.7,2.7,0,0,1,293.9,201.4ZM4.8,181.5H4.5a2.3,2.3,0,0,1-2.2-2.7c.4-4,.8-8,1.3-12a2.5,2.5,0,1,1,5,.6c-.5,4-1,8-1.4,11.9A2.4,2.4,0,0,1,4.8,181.5Zm268.1-3.8a2.3,2.3,0,0,1-1.4-.4A25.5,25.5,0,0,1,263,168l-.2-.5a2.4,2.4,0,0,1,1.1-3.3,2.5,2.5,0,0,1,3.4,1.1l.2.5a20.6,20.6,0,0,0,6.9,7.4,2.5,2.5,0,0,1-1.5,4.5Zm-14.8-27.6a2.5,2.5,0,0,1-2.4-1.8,76.4,76.4,0,0,1-2.2-12.2,2.5,2.5,0,1,1,5-.5,77.9,77.9,0,0,0,2,11.4,2.5,2.5,0,0,1-1.8,3.1ZM9,149.8H8.6a2.5,2.5,0,0,1-2-2.9c.6-4,1.3-8,2.1-11.9a2.4,2.4,0,0,1,2.9-2,2.5,2.5,0,0,1,2,2.9c-.7,3.9-1.5,7.9-2.1,11.8A2.6,2.6,0,0,1,9,149.8Zm247.7-31.4h-.4a2.5,2.5,0,0,1-2.1-2.9,73.4,73.4,0,0,1,3.2-12,2.6,2.6,0,0,1,3.2-1.5,2.5,2.5,0,0,1,1.5,3.2,63.6,63.6,0,0,0-2.9,11.2A2.7,2.7,0,0,1,256.7,118.4Zm-241.4-.1h-.6a2.5,2.5,0,0,1-1.9-3c.9-4,1.9-7.9,2.9-11.8a2.5,2.5,0,0,1,3-1.8,2.5,2.5,0,0,1,1.8,3.1c-1,3.8-1.9,7.7-2.8,11.6A2.4,2.4,0,0,1,15.3,118.3ZM268.9,89a2.5,2.5,0,0,1-1.4-.4,2.5,2.5,0,0,1-.6-3.5l.2-.4a28.6,28.6,0,0,0,4.6-9.5,2.5,2.5,0,0,1,4.9,1.2,39.1,39.1,0,0,1-5.3,11.2l-.3.3A2.4,2.4,0,0,1,268.9,89ZM23.5,87.4h-.7a2.6,2.6,0,0,1-1.7-3.2c1.2-3.9,2.5-7.8,3.8-11.5A2.3,2.3,0,0,1,28,71.1a2.5,2.5,0,0,1,1.6,3.2c-1.3,3.6-2.5,7.4-3.7,11.3A2.5,2.5,0,0,1,23.5,87.4ZM270.7,59.3a2.6,2.6,0,0,1-2.1-1.1,39.1,39.1,0,0,0-7.7-8.3,2.6,2.6,0,0,1-.3-3.5,2.5,2.5,0,0,1,3.6-.3,49.2,49.2,0,0,1,8.6,9.3,2.7,2.7,0,0,1-.7,3.5A4.3,4.3,0,0,1,270.7,59.3ZM34.4,57.2a1.8,1.8,0,0,1-1-.2,2.5,2.5,0,0,1-1.3-3.3c1.7-3.9,3.4-7.6,5.2-11a2.5,2.5,0,0,1,3.3-1.1A2.6,2.6,0,0,1,41.7,45c-1.7,3.2-3.4,6.9-5,10.7A2.4,2.4,0,0,1,34.4,57.2ZM245.7,39.7a2,2,0,0,1-1.1-.3c-3.4-1.6-7-3.3-10.8-4.8a2.6,2.6,0,0,1-1.4-3.3,2.5,2.5,0,0,1,3.3-1.4c3.9,1.7,7.7,3.4,11.1,5.1a2.5,2.5,0,0,1,1.1,3.3A2.4,2.4,0,0,1,245.7,39.7ZM50.4,29.7a2.8,2.8,0,0,1-1.7-.7,2.6,2.6,0,0,1-.1-3.6,59,59,0,0,1,9.7-8,2.5,2.5,0,0,1,3.4.7,2.5,2.5,0,0,1-.7,3.5,44.3,44.3,0,0,0-8.7,7.3A2.7,2.7,0,0,1,50.4,29.7ZM215.8,28h-.7l-11.5-3.2a2.5,2.5,0,1,1,1.2-4.8q6,1.5,11.7,3.3a2.4,2.4,0,0,1,1.7,3.1A2.4,2.4,0,0,1,215.8,28Zm-31-8.3h-.7l-11.6-2.8a2.5,2.5,0,0,1-1.9-3,2.6,2.6,0,0,1,3-1.9l11.8,2.9a2.6,2.6,0,0,1,1.8,3.1A2.5,2.5,0,0,1,184.8,19.7ZM77.9,13.9a2.5,2.5,0,0,1-2.4-1.8A2.4,2.4,0,0,1,77.2,9a100.9,100.9,0,0,1,12-2.7,2.5,2.5,0,0,1,2.9,2A2.5,2.5,0,0,1,90,11.2a91,91,0,0,0-11.4,2.6Zm75.5-.9H153c-4-.7-8-1.3-11.8-1.7A2.6,2.6,0,0,1,139,8.5a2.5,2.5,0,0,1,2.8-2.2l12,1.7a2.6,2.6,0,0,1,2.1,2.9A2.6,2.6,0,0,1,153.4,13ZM121.5,9.6h-.1c-4-.2-7.9-.2-11.8-.1A2.6,2.6,0,0,1,107,7a2.5,2.5,0,0,1,2.5-2.5c3.9-.1,8-.1,12.1.1A2.5,2.5,0,0,1,124,7.2,2.4,2.4,0,0,1,121.5,9.6Z"/></svg>