<svg width="28" height="28" viewBox="0 0 28 28" fill="none" xmlns="http://www.w3.org/2000/svg">
<mask id="mask0_0_338" style="mask-type:alpha" maskUnits="userSpaceOnUse" x="0" y="0" width="28" height="28">
<rect width="28" height="28" fill="#D9D9D9"/>
</mask>
<g mask="url(#mask0_0_338)">
<path d="M14 3C20.0685 3 25.0073 7.94063 25 14.0054C24.9945 20.0775 20.0503 25.0127 13.9873 25C7.92426 24.9872 3.00728 20.0666 3.00001 14.0073C2.99273 7.94244 7.93154 3 14 3ZM14 4.94824C11.7443 7.25119 10.5747 9.97436 10.3473 13.1359H17.6564C17.4217 9.96163 16.252 7.23846 14.0018 4.94824H14ZM10.3436 14.8531C10.5783 18.0365 11.7498 20.7652 14.0018 23.0517C16.2538 20.7506 17.4253 18.0256 17.6527 14.8531H10.3436ZM16.3357 5.00645C18.1657 7.41673 19.1498 10.129 19.3317 13.145H23.2828C23.0645 11.0349 22.2605 9.21034 20.8325 7.66776C19.6028 6.33802 18.1075 5.44485 16.3339 5.00645H16.3357ZM11.6534 5.01372C9.7488 5.48668 8.16438 6.4799 6.89648 7.96791C5.62858 9.45592 4.91004 11.1804 4.71722 13.145H8.66645C8.84836 10.1326 9.82702 7.42765 11.6534 5.01372ZM19.3317 14.855C19.1498 17.871 18.1657 20.5832 16.3375 22.9935C18.1748 22.5351 19.7119 21.5983 20.9598 20.194C22.3096 18.675 23.0772 16.8978 23.281 14.855H19.3317ZM11.7134 23.0081C9.82884 20.5778 8.84836 17.8637 8.66645 14.8586H4.74087C4.99008 18.7605 8.07525 22.1877 11.7134 23.0081Z" fill="url(#paint0_linear_0_338)"/>
</g>
<defs>
<linearGradient id="paint0_linear_0_338" x1="14" y1="3" x2="14" y2="25" gradientUnits="userSpaceOnUse">
<stop stop-color="#70819E"/>
<stop offset="1" stop-color="#AFB3CB"/>
</linearGradient>
</defs>
</svg>
