<svg width="20" height="19" viewBox="0 0 20 19" fill="none" xmlns="http://www.w3.org/2000/svg">
<path d="M13.2992 18.8475C12.7928 18.8364 12.4644 18.6583 12.2084 18.33C11.6742 17.651 10.9674 17.2948 10.0992 17.3004C9.27001 17.306 8.59662 17.651 8.08462 18.3022C7.57819 18.9477 7.12184 19.0757 6.35941 18.7752C5.38549 18.3912 4.49506 17.8625 3.68254 17.1947C3.22619 16.8218 3.10932 16.2764 3.35419 15.6921C3.84949 14.5011 3.46549 13.1933 2.41923 12.4921C2.09089 12.275 1.73471 12.1359 1.33958 12.0802C0.577147 11.9745 0.226538 11.6406 0.109669 10.8726C-0.062853 9.77624 -0.0294617 8.68546 0.193147 7.60024C0.310017 7.02702 0.716277 6.67085 1.31732 6.59294C3.03697 6.36476 4.04428 4.71746 3.45993 3.08685C3.23176 2.45798 3.38202 1.95154 3.91071 1.53972C4.69541 0.93311 5.55245 0.454502 6.48184 0.103893C7.05506 -0.11315 7.56149 0.00928456 7.96219 0.476763C9.09749 1.79572 10.9118 1.79572 12.0415 0.482328C12.4533 0.00371922 12.9486 -0.11315 13.5385 0.109459C14.5514 0.493458 15.4752 1.03328 16.3156 1.71781C16.7942 2.11294 16.9389 2.60268 16.7385 3.18702C16.1876 4.78981 17.1058 6.37033 18.7698 6.67641C19.3876 6.79328 19.7326 7.14389 19.8495 7.75606C20.061 8.89137 20.0443 10.0211 19.8328 11.1508C19.7271 11.6962 19.3208 12.0802 18.7587 12.1693C17.0558 12.4253 16.0707 14.0893 16.6773 15.6976C16.9055 16.3098 16.7719 16.8107 16.2711 17.2225C15.5031 17.8514 14.6627 18.3578 13.7389 18.7251C13.5664 18.7919 13.3883 18.8197 13.2992 18.8475ZM9.99349 6.12546C8.14584 6.13102 6.65993 7.62806 6.66549 9.46459C6.67106 11.3178 8.17367 12.7982 10.0325 12.787C11.8578 12.7815 13.3438 11.2622 13.3326 9.4145C13.3215 7.6058 11.8133 6.11989 9.99349 6.12546Z" fill="white"/>
</svg>
