<svg width="17" height="21" viewBox="0 0 17 21" fill="none" xmlns="http://www.w3.org/2000/svg">
<path fill-rule="evenodd" clip-rule="evenodd" d="M6.36448 16.9881C7.07669 16.9906 7.78891 16.9931 8.50112 16.9931C9.28354 16.9931 10.066 16.9938 10.8486 16.9946C12.4147 16.996 13.9818 16.9975 15.5518 16.9931C16.503 16.9931 17.1149 16.2828 16.9819 15.3468C16.8954 14.756 16.6227 14.2847 16.1504 13.9262C16.0407 13.8432 15.9309 13.7619 15.8212 13.6806C15.7114 13.5993 15.6017 13.5179 15.4919 13.435C14.9598 13.0367 14.6272 12.5255 14.5275 11.8683C14.4809 11.563 14.4609 11.2576 14.4609 10.9523C14.4576 10.2951 14.4576 9.63622 14.4576 8.97737C14.4576 8.31852 14.4576 7.65967 14.4543 7.00248C14.4476 6.15942 14.2148 5.36947 13.7625 4.65253C13.0508 3.53067 12.0265 2.78054 10.7826 2.3756C10.1374 2.16982 9.8913 1.84454 9.92456 1.19399C9.95117 0.716034 9.6718 0.384121 9.25275 0.171696C8.86696 -0.0208145 8.46121 -0.0407302 8.04216 0.058844C7.41691 0.211524 7.05773 0.662929 7.03777 1.30684C7.03777 1.41969 7.03777 1.53918 7.03112 1.65203C7.01782 1.94412 6.89144 2.13663 6.58547 2.22956C6.25954 2.32914 5.94026 2.44863 5.63429 2.59467C4.25741 3.2585 3.18651 4.22105 2.74085 5.72793C2.60117 6.21253 2.54796 6.73695 2.53466 7.24146C2.51802 7.95517 2.51636 8.67054 2.5147 9.38673C2.51304 10.1027 2.51137 10.8196 2.49475 11.5364C2.48144 12.2666 2.18212 12.884 1.59678 13.3487C1.42618 13.4849 1.25201 13.614 1.07688 13.7438C1.01303 13.7911 0.949045 13.8385 0.885063 13.8864C0.499272 14.1718 0.219905 14.5369 0.0802223 14.995C-0.192492 15.9177 0.213254 17.0197 1.55687 16.9997C3.15941 16.9768 4.76194 16.9824 6.36448 16.9881ZM11 18H6C6.02265 19.172 6.47565 19.9917 7.24009 20.5454C8.15742 21.1997 9.06908 21.1422 9.94111 20.4087C10.6093 19.8479 10.9943 19.0642 11 18Z" fill="white"/>
</svg>
