<?xml version="1.0" encoding="utf-8"?>
<!-- Generator: Adobe Illustrator 23.1.0, SVG Export Plug-In . SVG Version: 6.00 Build 0)  -->
<svg version="1.1" id="圖層_1" xmlns="http://www.w3.org/2000/svg" xmlns:xlink="http://www.w3.org/1999/xlink" x="0px" y="0px"
	 viewBox="0 0 270.89 335.44" style="enable-background:new 0 0 270.89 335.44;" xml:space="preserve">
<style type="text/css">
	.st0{fill:#FFFFFF;}
	.st1{fill:none;stroke:#040000;stroke-width:2.1765;stroke-linecap:round;stroke-linejoin:round;stroke-miterlimit:10;}
	.st2{enable-background:new    ;}
	.st3{fill:#B2B2B2;}
	.st4{fill:#040000;}
	.st5{fill:#FFFFFF;stroke:#040000;stroke-miterlimit:10;}
	.st6{fill:none;stroke:#040000;stroke-width:2;stroke-linecap:round;}
	.st7{fill:#64BEFA;}
	.st8{fill-rule:evenodd;clip-rule:evenodd;fill:#00663E;}
	.st9{fill-rule:evenodd;clip-rule:evenodd;fill:#3D1B07;}
	.st10{fill-rule:evenodd;clip-rule:evenodd;fill:#D27133;}
	.st11{fill-rule:evenodd;clip-rule:evenodd;fill:#E2CAB6;}
	.st12{fill-rule:evenodd;clip-rule:evenodd;fill:#F98300;}
	.st13{fill-rule:evenodd;clip-rule:evenodd;fill:#651906;}
	.st14{fill-rule:evenodd;clip-rule:evenodd;fill:#351805;}
	.st15{fill-rule:evenodd;clip-rule:evenodd;fill:#45260C;}
	.st16{fill-rule:evenodd;clip-rule:evenodd;fill:#FBB98C;}
	.st17{fill-rule:evenodd;clip-rule:evenodd;fill:#FAAD7B;}
	.st18{fill-rule:evenodd;clip-rule:evenodd;fill:#FFA8AD;}
	.st19{fill-rule:evenodd;clip-rule:evenodd;fill:#F9A873;}
	.st20{fill-rule:evenodd;clip-rule:evenodd;fill:#4D0C01;}
	.st21{fill-rule:evenodd;clip-rule:evenodd;fill:#F79961;}
	.st22{fill-rule:evenodd;clip-rule:evenodd;fill:#F39157;}
	.st23{fill-rule:evenodd;clip-rule:evenodd;fill:#FAAD79;}
	.st24{fill-rule:evenodd;clip-rule:evenodd;fill:#891207;}
	.st25{fill-rule:evenodd;clip-rule:evenodd;fill:#FFFFFF;}
	.st26{fill-rule:evenodd;clip-rule:evenodd;fill:#0A6ECA;}
	.st27{fill-rule:evenodd;clip-rule:evenodd;fill:#A14616;}
	.st28{fill-rule:evenodd;clip-rule:evenodd;fill:#9B3F13;}
	.st29{fill-rule:evenodd;clip-rule:evenodd;fill:#763915;}
	.st30{fill-rule:evenodd;clip-rule:evenodd;fill:#2E1002;}
	.st31{fill-rule:evenodd;clip-rule:evenodd;fill:#CB6224;}
	.st32{fill-rule:evenodd;clip-rule:evenodd;fill:#F78993;}
	.st33{fill-rule:evenodd;clip-rule:evenodd;fill:#7E290F;}
	.st34{fill-rule:evenodd;clip-rule:evenodd;fill:#5A1404;}
	.st35{opacity:0.95;}
	.st36{fill-rule:evenodd;clip-rule:evenodd;fill:#F59A60;}
	.st37{fill-rule:evenodd;clip-rule:evenodd;fill:#583B1B;}
	.st38{fill-rule:evenodd;clip-rule:evenodd;fill:#846251;}
	.st39{fill-rule:evenodd;clip-rule:evenodd;fill:#503825;}
	.st40{fill-rule:evenodd;clip-rule:evenodd;fill:#392515;}
	.st41{fill-rule:evenodd;clip-rule:evenodd;fill:#240901;}
	.st42{fill-rule:evenodd;clip-rule:evenodd;fill:#FF514D;}
	.st43{fill-rule:evenodd;clip-rule:evenodd;fill:#F74646;}
	.st44{fill-rule:evenodd;clip-rule:evenodd;fill:#F99D63;}
	.st45{fill-rule:evenodd;clip-rule:evenodd;fill:#4AB879;}
	.st46{fill-rule:evenodd;clip-rule:evenodd;fill:#72513E;}
	.st47{fill-rule:evenodd;clip-rule:evenodd;fill:#331907;}
	.st48{opacity:0.8;}
	.st49{fill:#FCCD56;}
	.st50{fill:#FEDAD7;}
	.st51{fill:#EA96BD;}
	.st52{fill:#F7CCDF;}
	.st53{fill:#996C41;}
	.st54{fill:#FDA39C;}
	.st55{fill:#FEBFBA;}
	.st56{fill:#333333;}
	.st57{fill:#A9ECFC;}
	.st58{opacity:0.7;fill:#FFFFFF;}
	.st59{fill:#0588E8;}
	.st60{fill:#4D4D4D;}
	.st61{fill:#F3A730;}
	.st62{opacity:0.6;fill:none;stroke:#FFFFFF;stroke-miterlimit:10;}
	.st63{fill:none;stroke:#0588E8;stroke-miterlimit:10;}
	.st64{fill:#F69632;}
	.st65{fill:#727171;}
	.st66{fill:#F79D19;}
	.st67{fill:#9FC7FF;}
	.st68{fill:#E6E6E6;}
	.st69{fill:#FF5C7D;}
	.st70{fill:#F72653;}
	.st71{fill:#F8C110;}
	.st72{fill:#4CAE50;}
	.st73{fill:#439F47;}
	.st74{fill:#BE6724;}
	.st75{fill:#F5F5F5;}
	.st76{fill:#80DDE9;}
	.st77{fill:#FF7043;}
	.st78{fill:none;stroke:#FFFFFF;stroke-width:2;stroke-linecap:round;stroke-linejoin:round;stroke-miterlimit:10;}
	.st79{fill:#FFA8AD;}
	.st80{fill:#C69C6D;}
	.st81{fill:#A67C52;}
	.st82{fill:#8C6239;}
	.st83{fill:#F9CFCF;}
	.st84{fill:#FCF27C;}
	.st85{fill:#8AE2F5;}
	.st86{fill:#FC7010;}
	.st87{fill:#F45CC1;}
	.st88{fill:#FF8939;}
	.st89{fill:#FF7BAC;}
	.st90{fill:#999999;}
	.st91{fill:#1A1A1A;}
	.st92{fill:#0A6ECA;}
	.st93{fill:#D8E5EF;}
	.st94{fill:#FFFF4D;}
	.st95{fill:#40D7FF;}
	.st96{fill:#FF7680;}
	.st97{fill:#EEF7FF;}
	.st98{fill:#FFE150;}
	.st99{fill:#53F46E;}
	.st100{fill:#F9C795;}
	.st101{fill:#FF0000;}
	.st102{fill:#EDF7F9;}
	.st103{fill:#4AB879;}
	.st104{fill:#E96045;}
	.st105{fill:#7F8082;}
	.st106{fill:#5CA233;}
	.st107{fill:#F2A038;}
	.st108{fill:#DB2525;}
	.st109{fill:#58595B;}
	.st110{fill:#F0911F;}
	.st111{fill:#E8512B;}
	.st112{fill:#6C6E71;}
	.st113{fill:#767777;}
	.st114{opacity:0.1;}
	.st115{fill:#FC7ABB;}
	.st116{fill:#3DE280;}
	.st117{fill:#5D90F4;}
	.st118{clip-path:url(#SVGID_2_);fill:#A9ECFC;}
	.st119{fill:#F7D7D7;}
	.st120{fill:#FFFFFF;stroke:#FFFFFF;stroke-width:3;stroke-miterlimit:10;}
	.st121{fill:#FFFFFF;stroke:#A4EBF7;stroke-width:3;stroke-miterlimit:10;}
	.st122{fill:#FFCD00;}
	.st123{clip-path:url(#SVGID_6_);fill:#A9ECFC;}
	.st124{fill:#F7ADCF;}
	.st125{fill:#B1EFDD;}
	.st126{fill:#9EB5E8;}
	.st127{fill:#FFE9AB;}
	.st128{clip-path:url(#SVGID_8_);fill:#A9ECFC;}
	.st129{fill:#4D87A4;}
	.st130{fill:#FFFFFF;stroke:#040000;stroke-width:0;stroke-miterlimit:10;}
	.st131{fill:#8C8C8C;}
	.st132{fill:none;stroke:#B3B3B3;stroke-miterlimit:10;}
	.st133{fill:none;stroke:#B3B3B3;stroke-miterlimit:10;stroke-dasharray:0.9817,1.9634,0.9817,1.9634;}
	.st134{fill:none;stroke:#B3B3B3;stroke-miterlimit:10;stroke-dasharray:11.7802,0.9817,0.9817,1.9634,0.9817,1.9634;}
	.st135{fill:none;stroke:#0A6ECA;stroke-miterlimit:10;}
	.st136{fill:none;stroke:#B3B3B3;stroke-miterlimit:10;stroke-dasharray:0.9866,1.9732,0.9866,1.9732;}
	.st137{fill:none;stroke:#B3B3B3;stroke-miterlimit:10;stroke-dasharray:11.8389,0.9866,0.9866,1.9732,0.9866,1.9732;}
	.st138{fill:none;stroke:#B3B3B3;stroke-width:0.5;stroke-miterlimit:10;}
	.st139{fill:none;stroke:#B3B3B3;stroke-width:0.5;stroke-miterlimit:10;stroke-dasharray:0.9866,1.9732,0.9866,1.9732;}
	
		.st140{fill:none;stroke:#B3B3B3;stroke-width:0.5;stroke-miterlimit:10;stroke-dasharray:11.8389,0.9866,0.9866,1.9732,0.9866,1.9732;}
	.st141{fill:#808080;}
</style>
<g class="st35">
	<path class="st19" d="M214.91,75.97c-1.03-0.45-5.66-1.97-7.11-4.52c-1.45-2.55,1.46-12.09,2.67-15.18
		c1.21-3.09,5.68-15.94,7.41-14.95c1.73,1-3.04,15.59-2.62,15.72c0.42,0.13,10.49-17.54,13-16.06c2.52,1.48-9.24,18.25-8.63,18.63
		c0.61,0.38,10.41-13.9,12.35-12.09c1.93,1.81-9.27,15.26-8.14,15.22c1.13-0.04,10.28-9.88,11.78-7.89
		c1.49,1.99-9.99,11.73-9.99,11.73s-3.93,5.66-7.07,7.91C215.41,76.72,214.91,75.97,214.91,75.97z"/>
	<path class="st19" d="M223.67,64.7c0,0-0.17,2.18-4.24,5.16c-1.77,1.29-3.58,2.29-5.07,3c-1.94,0.93-3.32,1.38-3.32,1.38
		c1.63,0.9,3.31,1.48,3.88,1.73c0,0,0.22,0.33,1.3-0.1c0.54-0.22,1.3-0.64,2.35-1.39c3.15-2.25,7.07-7.91,7.07-7.91
		s11.48-9.74,9.99-11.73c-0.05-0.07-0.12-0.13-0.19-0.17c-1.07,1.61-3.22,4.64-5.44,6.41C226.85,63.57,223.67,64.7,223.67,64.7z"/>
	<path class="st19" d="M208.98,72.83c-0.13-0.63-1.22-0.82-1.49-2.35c-0.7-4.03-0.78-10.94-0.79-11.54
		c-0.02-0.83,1.92-10.62,2.8-9.3c2.31,3.49-0.59,8.13,1.92,13.43C214.23,69.02,212.84,74.23,208.98,72.83z"/>
	<path class="st36" d="M214.36,72.86c1.49-0.71,3.3-1.71,5.07-3c0.29-0.22,0.57-0.43,0.82-0.63l1.89,1.8
		c-1.14,1.31-2.42,2.62-3.59,3.45c-1.45,1.03-2.33,1.43-2.87,1.56c-0.63,0.15-0.78-0.07-0.78-0.07c-0.32-0.14-1-0.39-1.83-0.75
		c0.22-0.4,0.41-0.75,0.58-1.05C214.11,73.33,214.36,72.86,214.36,72.86z"/>
	<g>
		<path class="st37" d="M153.15,129.76c0.58,0.99,1.74,7.87,1.41,10.18c-0.33,2.32-4.18,15.57-4.18,15.57s-0.79,0.58-2.17,1.1
			c-1.39,0.52-12.03-12.17-11.28-16.31C137.67,136.16,153.15,129.76,153.15,129.76z"/>
		<path class="st38" d="M153.05,137.28c1.3,2-1.54,14.49-2.68,18.23c-0.18,0.59,16.88-30.38-0.16-45.11
			c-2.99-2.58-11.42-3.84-18.05-4.41c-6.22-0.54-26.69-0.7-27.4-0.37C104.64,105.68,143.81,123.01,153.05,137.28z"/>
		<path class="st39" d="M137.13,116.43c6.13,3.31,9.77,7.95,12.42,17.06c2.65,9.11-2.81,5.46,0.17,21.03
			c2.98,15.57,0.83,31.8-6.13,38.75c-6.96,6.96-44.22,5.96-53.49-3.97s6.01-68.41,15.59-73.79
			C115.27,110.14,137.13,116.43,137.13,116.43z"/>
		<path class="st40" d="M129.76,112.62c6.13,3.31,9.77,7.95,12.42,17.06c2.65,9.11-2.81,5.46,0.17,21.03
			c2.98,15.57,2.48,32.29-4.47,39.25c-6.96,6.96-40.09,6.53-49.37-3.41c-9.27-9.94,0.23-69.48,9.81-74.85
			C107.9,106.33,129.76,112.62,129.76,112.62z"/>
		<path class="st19" d="M152.19,111.56c12-0.91,7.35,0.78,24.87-4.49c-0.7,0.53,18.52-11.47,31.91-36.98l6.75,5.88
			c-12.01,22.41-24.07,36.39-40.45,45.82c-5.11,2.94-10.08,3.03-15.34,4.96L152.19,111.56z"/>
		<path class="st41" d="M81.49,294.11c0.91,0.99,5.13,4.97,5.13,4.97l4.55,5.46c0,0-4.8,9.27-8.11,13.74
			c-3.31,4.47-15.15,8.69-16.64,4.14c-1.49-4.55,7.62-10.43,8.94-14.74c1.32-4.31,1.08-8.2,1.08-8.2L81.49,294.11z"/>
		<path class="st41" d="M168.18,300.24c0,0,6.79,8.45,7.12,10.76c0.33,2.32,3.56,21.69,9.69,24.01c6.13,2.32,7.7-5.13,6.38-15.4
			c-1.32-10.27-6.29-16.39-7.95-17.22c-1.66-0.83-13.41-7.62-13.41-7.62L168.18,300.24z"/>
		<path class="st15" d="M125.45,195.87c3.26,8.26,17.76,62.79,17.76,62.79l35.61,40.29c0,0-2.5,12.24-6.5,8.74
			c-2.13-1.86-38.83-30.67-47.14-38.19c-4.85-4.39-20.69-39.74-21.74-39.85c-2.25-0.25-37.08,21.94-37.08,21.94
			s18.91,43.71,19.14,45.94c0.23,2.23-4.83,5.34-9.08,4.09c-4.25-1.25-34.27-47.2-32.77-51.2c1.5-4,38.52-54.53,38.52-54.53
			L125.45,195.87z"/>
		<path class="st19" d="M84.72,129.26c-6.3,2.9-6.36,4.34-19.38,6.01c0.64-0.49-20.73,15.81-40.83,25.19l-3-5.07
			c12.9-10.51,28.12-24.15,38.4-30.55c7.37-4.59,11.39-4.53,18.84-7.27L84.72,129.26z"/>
		<path class="st19" d="M26.81,156.42l-2.3,4.04c0,0-4.82,16.41-5.57,15.43c-0.76-0.98,0-10.15,0-10.15s-9.54,5.15-11.36,6.89
			c-1.82,1.74-6.21,5.83-5.83,4.47c0.38-1.36,5.76-8.41,5.76-8.41s-3.94,3.37-4.39,3.9c-0.45,0.53-2.99,3.18-3.11,1.48
			c-0.14-2.15,11.23-13.8,13.76-14.79c2.12-0.83,7.75-3.89,7.75-3.89L26.81,156.42z"/>
		<path class="st19" d="M18.94,164.64c-1.89,1.82-7.38,6.25-7.46,6.51c-0.08,0.27-3.52,8.75-3.9,7.46c-0.38-1.29,1.33-8.1,1.48-8.33
			c0.15-0.23,6.25-5.87,6.55-5.91C15.91,164.34,18.94,164.64,18.94,164.64z"/>
		<path class="st19" d="M14.08,161.01c-1.08,0.7-2.29,0.47-2.29,0.47l-10.75,9.01c0,0-0.46,0.54,1.08,0.46
			c1.53-0.08,11.26-7.99,11.26-7.99L14.08,161.01z"/>
		<path class="st36" d="M65.34,135.26c0.64-0.49-20.73,15.81-40.83,25.19l1.87-3.28l34.89-24.13l-1.04-8.38
			C60.41,126.02,63.22,131.14,65.34,135.26z"/>
		<path class="st19" d="M26.38,157.18l-1.87,3.28c0,0-4.31,14.67-5.41,15.44c-0.1-0.01-0.16-0.01-0.16-0.01l3.86-16.48l0.8-0.5
			L26.38,157.18z"/>
		<path class="st42" d="M172.7,108.37l3.31,23.89l-35.54,6.35c0,0-4.22,57.87-4.25,72.57c-0.02,9.15-50.04,2.79-63.98-7.18
			l15.08-68.44c0,0-19.54,8.1-19.29,6.35c0.25-1.75-9.48-17.86-7.98-17.86c1.03,0,29.86-18.01,34.15-18.26
			c4.62-0.27,9.84-0.52,13.8,0.2c9.39,1.7,16.34,5.87,24.4,4.7C138.15,109.17,155.29,109.9,172.7,108.37z"/>
		<path class="st43" d="M78.35,176.27l8.97-40.7c0,0-19.54,8.1-19.29,6.35c0.23-1.6-7.83-15.11-8.13-17.5l9.91,9.67l15.57-10.35
			l7.56-14.49l10.19-3.7c0.48,0.01,0.96,0.03,1.43,0.06l-12.3,39.34c0,0-7.51,20.34-7.53,21.34
			C84.73,166.75,81.66,171.44,78.35,176.27z"/>
		<path class="st19" d="M108,106c0.83,0.14,2.45,0.16,3.25,0.31c5.01,0.94,8.74,2.14,15.03,3.09c1.74,0.26,4.14,1.16,6.12,1.3
			c0.12,0.48,0.19,0.97,0.19,1.47c0,5.01-6.36,9.07-14.2,9.07s-14.2-4.06-14.2-9.07C104.19,109.79,105.64,107.62,108,106z"/>
		<path class="st19" d="M129.21,97.1c-0.63,2-3.5,16.88-3.5,16.88s-7.25,3.25-11.51,0.63c-4.25-2.63-4.63-4.38-4.63-4.38l6.25-14.63
			L129.21,97.1z"/>
		<path class="st13" d="M153.33,81.04c2.22-3.38,3.65-5.08,8.66-17.09c5.01-12.01-3.73-18.65-3.73-18.65s0.58-7.11-3.38-13.41
			c-3.96-6.3-5.71-7.93-5.36-6.65c0.35,1.28-0.12,2.91-0.35,1.98c-0.23-0.93-7.58-7.69-7.58-7.69s-0.76,3.38-1.17,2.97
			c-0.41-0.41-1.28-2.16-11.89-5.13c-10.61-2.97-19.35-3.38-18.65-2.86c0.7,0.52,3.96,3.5,3.26,3.26c-0.7-0.23-9.21,0-13-0.64
			c-3.79-0.64-5.54-1.46-4.72-1.05c0.82,0.41,3.85,8.1,5.77,10.14c1.92,2.04,1.98,1.98,1.98,1.98s-0.82-0.76-7.05,1.92
			c-6.24,2.68-8.28,5.42-7.93,5.19c0.35-0.23,11.37,1.11,11.37,1.11s-3.44,12.71-2.86,16.44c0.58,3.73,3.03,15.65,3.79,15.83
			L153.33,81.04z"/>
		<path class="st16" d="M134.94,34.51c-16.94-3.65-30.1,10.14-34.27,29.5c-4.17,19.36,2.22,36.96,19.16,40.61
			c16.94,3.65,30.78-9.59,34.95-28.95C158.95,56.3,151.88,38.16,134.94,34.51z"/>
		<path class="st44" d="M155.89,62.52c-0.52-9.55-4.09-17.89-10.5-23.08c-6.45,0.42-26.48,4.06-26.48,4.06s-5.88,4.47-6.38,4.47
			s0.75,0.75,5.63,1.33c4.88,0.58,18.88-1.16,19.38-1.33c0.5-0.17-6.04,6.71-6.04,6.71s2.07,0.58,9.19-1.32
			c3.46-0.92,6.62-3.06,8.98-5.08c1.06,2,2.33,4.55,3.52,6.82C154.44,57.47,155.32,60.31,155.89,62.52z"/>
		<path class="st13" d="M154.72,40.54c-3.13,2.88-7.23,6.76-17.6,8.51c-10.38,1.75-12.13,0.93-12.13,0.93s5.6-4.78,4.08-4.31
			c-1.52,0.47-9.21,1.05-14.92,1.17c-5.71,0.12-5.36-0.23-5.36-0.23s6.53-3.96,5.13-3.96c-1.4,0-10.73-1.05-10.73-1.05
			s5.95-12.48,17.84-13.64C132.92,26.79,154.72,40.54,154.72,40.54z"/>
		<path class="st20" d="M141.6,66.11c-1.57,0-3.18,2.12-3.59,4.73c-0.41,2.61,0.53,4.73,2.1,4.73c1.57,0,3.18-2.12,3.59-4.73
			C144.11,68.23,143.17,66.11,141.6,66.11z"/>
		<path class="st20" d="M114.67,59.47c-1.57,0-3.18,2.12-3.59,4.73c-0.41,2.61,0.53,4.73,2.1,4.73c1.57,0,3.18-2.12,3.59-4.73
			C117.18,61.58,116.24,59.47,114.67,59.47z"/>
		<path class="st21" d="M128.66,69.18c0,0.93-9.44,6.88-9.44,6.88c-1.7,2.79,7.02,8.37,9.21,5.71c-3.08-0.28-6.27-2.34-7.4-5.28
			C122.88,75.34,128.84,71.65,128.66,69.18z"/>
		
			<rect x="203.27" y="6.9" transform="matrix(0.6889 -0.7249 0.7249 0.6889 40.1746 178.511)" class="st45" width="49.55" height="71.11"/>
		
			<rect x="195.91" y="22.78" transform="matrix(0.674 -0.7388 0.7388 0.674 50.2418 164.0437)" class="st25" width="30.13" height="4.64"/>
		<path class="st16" d="M156.81,71.7c-3.15,0-6.28,3.37-6.99,7.53c-0.71,4.16,1.26,7.53,4.41,7.53c3.15,0,6.28-3.37,6.99-7.53
			C161.93,75.08,159.95,71.7,156.81,71.7z"/>
		<path class="st16" d="M99.17,57.21c-3.15,0-5.9,3.37-6.14,7.54c-0.25,4.16,2.11,7.53,5.25,7.53c3.15,0,5.9-3.37,6.14-7.53
			C104.67,60.59,102.32,57.21,99.17,57.21z"/>
		<path class="st11" d="M188.72,331.66c2.15-5.8-0.7-17.64-2.32-21.9c-1.03-2.71-2.64-5.83-3.68-7.74c0.31,0.17,0.54,0.29,0.7,0.37
			c1.66,0.83,6.62,6.96,7.95,17.22c1.23,9.56-0.05,16.68-5.18,15.74C187.07,334.78,187.97,333.68,188.72,331.66z"/>
		<path class="st12" d="M183.45,311.38c0.46,0,0.83-0.37,0.83-0.83c0-0.46-0.37-0.83-0.83-0.83c-0.1,0-1.82,0.46-3.41,1.08
			c-0.86,0.34-1.72,0.73-2.34,1.13c-1.7,1.1-2.52,2.09-2.53,2.09c-0.29,0.35-0.24,0.87,0.11,1.16c0.35,0.29,0.87,0.24,1.16-0.11
			c0,0,0.66-0.79,2.15-1.76c0.51-0.33,1.27-0.67,2.05-0.97C182.05,311.79,183.39,311.38,183.45,311.38z"/>
		<path class="st12" d="M176.11,317.18c-0.36,0.28-0.42,0.8-0.13,1.16c0.28,0.36,0.8,0.42,1.16,0.13c1.22-0.97,2.43-1.68,3.7-2.24
			c1.28-0.56,2.65-0.96,4.18-1.31c0.44-0.1,0.72-0.54,0.62-0.99c-0.1-0.45-0.54-0.72-0.99-0.62c-1.62,0.37-3.08,0.8-4.47,1.4
			C178.77,315.33,177.44,316.12,176.11,317.18z"/>
		<path class="st12" d="M177.34,320.61c-0.3,0.34-0.27,0.86,0.07,1.17c0.34,0.3,0.86,0.27,1.17-0.07c0.38-0.43,1.79-1.19,3.26-1.84
			c1.44-0.64,2.89-1.15,3.44-1.14c0.46,0.01,0.83-0.35,0.85-0.8c0.01-0.46-0.35-0.83-0.8-0.85c-0.81-0.02-2.53,0.55-4.15,1.27
			C179.51,319.09,177.88,320,177.34,320.61z"/>
		<path class="st12" d="M78.85,307.78c0.25,0.17,0.6,0.1,0.76-0.16c0.17-0.25,0.1-0.6-0.16-0.76c-0.11-0.07-0.22-0.14-0.33-0.2
			l-0.03-0.02c-0.78-0.42-1.7-0.6-2.52-0.55c-0.89,0.06-1.69,0.41-2.12,1.05c-0.04,0.05-0.06,0.1-0.09,0.14
			c-0.15,0.27-0.05,0.6,0.22,0.75c0.27,0.15,0.6,0.05,0.75-0.22l0.04-0.06c0.22-0.34,0.7-0.52,1.27-0.56
			c0.62-0.04,1.32,0.1,1.93,0.42l0.03,0.02C78.7,307.68,78.78,307.73,78.85,307.78z"/>
		<path class="st11" d="M70.29,321.74c10.9-1.68,15.09-12.22,19.35-19.04l1.54,1.85c0,0-4.8,9.27-8.11,13.74
			c-3.31,4.47-15.15,8.69-16.64,4.14c-0.11-0.35-0.17-0.71-0.16-1.08C67.32,321.68,68.74,321.98,70.29,321.74z"/>
		<path class="st12" d="M76.91,311.26c0.25,0.17,0.6,0.1,0.76-0.15c0.17-0.25,0.1-0.6-0.16-0.76c-0.11-0.07-0.22-0.14-0.33-0.2
			l-0.03-0.02c-0.78-0.42-1.7-0.6-2.52-0.55c-0.89,0.06-1.69,0.41-2.12,1.05c-0.04,0.05-0.06,0.1-0.09,0.14
			c-0.15,0.27-0.05,0.6,0.22,0.75c0.27,0.15,0.6,0.05,0.75-0.22l0.04-0.06c0.22-0.34,0.7-0.52,1.27-0.56
			c0.62-0.04,1.32,0.1,1.93,0.42l0.03,0.02C76.75,311.16,76.84,311.21,76.91,311.26z"/>
		<path class="st12" d="M74.38,314.45c0.25,0.17,0.6,0.1,0.76-0.16c0.17-0.25,0.1-0.6-0.16-0.76c-0.11-0.07-0.22-0.14-0.33-0.2
			l-0.03-0.02c-0.78-0.42-1.7-0.6-2.52-0.55c-0.89,0.06-1.69,0.41-2.12,1.05c-0.04,0.05-0.06,0.1-0.09,0.14
			c-0.15,0.27-0.05,0.6,0.22,0.75c0.27,0.15,0.6,0.05,0.75-0.22l0.04-0.06c0.22-0.34,0.7-0.52,1.27-0.56
			c0.62-0.04,1.32,0.1,1.93,0.42l0.03,0.02C74.23,314.35,74.31,314.4,74.38,314.45z"/>
		<path class="st46" d="M141.01,109.78c0,0,1.99,35.96,1.33,46.56c-0.66,10.6-3.55,15.58-5.2,12.93
			c-1.66-2.65-8.32-55.62-7.81-59.15C129.84,106.58,141.1,107.38,141.01,109.78z"/>
		<path class="st46" d="M94.19,105.8c0,0-12.06,32.65-13.37,43.25c-1.31,10.6,0.65,15.58,2.8,12.93
			c2.15-2.65,12.55-48.12,21.14-56.35C105.74,103.02,95.47,101.41,94.19,105.8z"/>
		<path class="st13" d="M135.6,62.45c2.96,0.28,10.68,1.6,12.76,2.51c2.09,0.91,2.38-2.54,0.48-3.18c-1.9-0.64-9.18-2.33-11.76-2.73
			C134.5,58.66,134.78,62.62,135.6,62.45z"/>
		<path class="st13" d="M121.01,59.27c-2.66-1.33-9.92-4.26-12.17-4.59c-2.26-0.32-0.69-3.41,1.26-2.96
			c1.95,0.45,9.03,2.85,11.43,3.87C123.93,56.62,121.61,59.84,121.01,59.27z"/>
		<g>
			<path class="st34" d="M152.49,37.75c0.89-5.18-9.85-13.51-14.32-11.84C143.53,28.38,149.23,32.79,152.49,37.75z"/>
		</g>
		<g>
			<path class="st34" d="M144.95,34.43c-13.51-9.19-13.1-7.05-28.9-5.22C127.68,32.47,125.7,26.68,144.95,34.43z"/>
		</g>
		<g>
			<path class="st33" d="M133.61,22.59c-15.12-4.24-22.94,8.22-29.73,1.24c-0.57,1.22,2.02,2.38,2.73,2.64
				C115.52,29.74,119.76,22.59,133.61,22.59z"/>
		</g>
		<g>
			<path class="st34" d="M127.24,18.95c-4.69-2.34-5.13-2.84-10.27-1.66C121.5,19,122.4,19.85,127.24,18.95z"/>
		</g>
		<g>
			<path class="st33" d="M146.61,39.4c-3.55,2.98-11.19,6.08-15.73,6.54C130.64,48.46,146.12,45.52,146.61,39.4z"/>
		</g>
		<g>
			<path class="st34" d="M139.66,36.34c-4.27,2.59-17.66,5.1-22.85,5.13C120.79,44.92,139.68,40.16,139.66,36.34z"/>
		</g>
		<g>
			<path class="st33" d="M134.52,34.43c-21.63-4.46-24.96-1.6-34.61,15.73C115.08,33.81,108.36,34.63,134.52,34.43z"/>
		</g>
		<g>
			<path class="st34" d="M112.66,30.96c-5.94,1.78-13.85,1.27-17.8,2.48C98.48,36.02,112.67,34.03,112.66,30.96z"/>
		</g>
		<g>
			<path class="st34" d="M118.21,19.28c-5.59,0.76-13.43,1.98-18.96,0.25C102.53,25.57,114.23,21.34,118.21,19.28z"/>
		</g>
		<g>
			<path class="st33" d="M154.19,46.61c1.88,5.65,4.56,10.97,3.95,17l0.07-0.02l-0.05,0.03c0,0.11-0.02,0.07,0.02,0.15
				c0.05,0.02,0.08,0.03,0.13,0C163.35,60.09,156.1,49.24,154.19,46.61z"/>
		</g>
		<g>
			<path class="st34" d="M159.53,49.96c0.67,3.23,1.72,6.36,2.12,9.64l0.05-0.1c-0.04,0.21-0.04,0.09,0.02,0.35
				C163.06,60.02,164.6,52.74,159.53,49.96z"/>
		</g>
		<g>
			<path class="st47" d="M153.94,40.73c-6.59,1.14-3.71-0.16-8.74,3.64C151.46,43.36,148.53,44.52,153.94,40.73z"/>
		</g>
		<path class="st36" d="M213.08,75.22c0.83,0.35,1.51,0.6,1.83,0.75c0,0,0.15,0.22,0.78,0.07c-12,22.37-24.05,36.34-40.41,45.75
			c-0.22,0.13-0.45,0.25-0.67,0.37l-0.77-5.58c0,0,14.88-9.02,23.82-18.87C204.43,90.23,210.52,79.83,213.08,75.22z"/>
		<path class="st43" d="M157.79,129.42c1.56-0.89,3.1-2.09,4.56-3.45c6.05-5.61,10.87-13.88,10.87-13.88l0.62,4.48l0.77,5.58
			l1.4,10.11l-18.8,3.36l-2.78,0.5l-1.93,0.35l-2.24,0.4l-8,1.43c-0.01-0.27-0.02-0.55-0.03-0.82c-0.02-0.73-0.05-1.46-0.07-2.19
			c-0.07-2.18-0.16-4.36-0.24-6.49c-0.03-0.78-0.06-1.55-0.1-2.31c-0.11-2.53-0.22-4.93-0.32-7.09c-0.14-2.98-0.27-5.49-0.36-7.2
			l0.6,7.41l0.59,7.26l0.42,5.23l0.17,2.11c0,0,0.48-0.03,1.39-0.19c1.08-0.19,2.76-0.55,5-1.24c0.01,0,0.02-0.01,0.03-0.01
			c1.26-0.39,2.69-0.88,4.29-1.5c0.86-0.34,1.76-0.71,2.71-1.12C156.82,129.94,157.3,129.7,157.79,129.42z"/>
		<path class="st43" d="M138.32,169.95c-0.45,6.92-0.9,14.14-1.26,20.71c-0.11,1.97-0.21,3.88-0.31,5.71
			c-0.32,6.31-0.53,11.6-0.54,14.82c0,1.77-1.87,2.96-4.99,3.65c-12.08,2.7-42.87-2.01-56.22-9.14c-0.64-0.34-1.25-0.69-1.81-1.05
			c0.85-0.04,1.75-0.1,2.7-0.18c7.93-0.66,18.97-2.67,30.78-8.16c0.32-0.15,0.63-0.29,0.94-0.44c1.06-0.5,2.07-1.01,3.04-1.52
			c19.43-10.15,22.76-20.97,23.07-23.46c0.3-2.41-3.2-44.64-3.83-52.18c-0.06-0.74-0.1-1.15-0.1-1.15c0.04,0.38,0.07,0.76,0.12,1.16
			c1.62,16.02,5.93,48.49,7.22,50.54C137.49,169.83,137.89,170.05,138.32,169.95z"/>
		<path class="st22" d="M156.21,74.3c4.2,0,4.07,7.59-0.58,9.61c-2.48,1.08-2.86-1.12-2.4-1.82c0.46-0.7,1.61-0.37,2.4-1.9
			c0.79-1.53-0.47-1.11-0.66-2.81C154.78,75.66,156.21,74.3,156.21,74.3z"/>
		<path class="st22" d="M100.51,59.74c-3.55-2.25-7.5,4.24-4.65,8.43c1.52,2.24,3.01,0.58,3-0.26c-0.01-0.84-1.17-1.18-1.01-2.89
			c0.15-1.72,1-0.69,2.06-2.02C100.99,61.66,100.51,59.74,100.51,59.74z"/>
		<path class="st13" d="M156.5,64.08c0,0-5.63,14.9-5.01,15.03c0.62,0.12,5.55-8.78,5.55-8.78L156.5,64.08z"/>
		<path class="st13" d="M104.13,51.46c0,0-1.49,15.86-2.1,15.7c-0.61-0.16-1.13-10.32-1.13-10.32L104.13,51.46z"/>
		<path class="st9" d="M134.97,265.65c-3.48-4.31-14.57-41.73-14.57-41.73s-9.11-0.83-28.65-8.11c-7.27-2.71-13.1-5.91-17.62-8.91
			c0.3-0.41,0.59-0.81,0.87-1.2c13.35,7.13,44.14,11.84,56.22,9.14c5.31,18.72,11.98,43.82,11.98,43.82l35.61,40.29
			c0,0-0.06,0.29-0.18,0.78c-0.23,0.98-0.7,2.72-1.36,4.39c-2.08-1.84-4.87-4.3-8.02-7.1C156.34,285.55,137.25,268.47,134.97,265.65
			z"/>
		<path class="st9" d="M103.44,229.64c-2.25-0.25-37.08,21.94-37.08,21.94s18.91,43.71,19.14,45.94c0.02,0.15,0.01,0.31-0.03,0.47
			c-0.23,1.14-1.62,2.4-3.47,3.17l-2.1-5.37L63.1,252.74l-10.76-1.66l7.29-5.13l36.11-21.91L103.44,229.64z"/>
		<path class="st23" d="M128.11,101.93c9.75-0.69,17.99-6.92,23.27-16.33c0.04,0.04,0.09,0.08,0.13,0.12
			c-4.97,11.04-13.61,18.54-24.05,19.41c-2.45,0.2-5,0.04-7.62-0.52c-2.5-0.54-4.76-1.38-6.8-2.48c-9.83-5.33-14.33-16.8-13.5-30.03
			c0.08-0.02,0.16-0.05,0.23-0.07c0.02,12.15,4.86,22.42,14.51,27.2c1.92,0.95,4.03,1.68,6.33,2.17
			C123.19,101.93,125.7,102.1,128.11,101.93z"/>
		<path class="st24" d="M113.35,82c-0.27,0.51-0.51,1.04-0.71,1.61c-1.91,5.5,0.89,11.43,6.24,13.25
			c5.35,1.82,11.23-1.16,13.14-6.66c0.2-0.56,0.34-1.13,0.44-1.7L113.35,82z"/>
		<path class="st25" d="M130.65,87.89l-0.62,1.72c-0.25,0.69-1.01,1.05-1.7,0.8l-13.44-4.82c-0.69-0.25-1.05-1.01-0.8-1.7l0.52-1.45
			L130.65,87.89z"/>
	</g>
</g>
</svg>
