<svg width="10" height="10" viewBox="0 0 10 10" fill="none" xmlns="http://www.w3.org/2000/svg">
<path d="M0 5.28897C0 5.09239 0 4.90049 0 4.70391C0.00936718 4.6337 0.0140508 4.56349 0.0234179 4.49328C0.145191 3.41677 0.552663 2.46662 1.27862 1.66626C2.04673 0.814408 3.00218 0.28083 4.14029 0.0795684C4.32764 0.0468049 4.51966 0.028083 4.70701 0C4.90372 0 5.09575 0 5.29246 0C5.32524 0.0046805 5.35334 0.0140412 5.38613 0.0187217C5.60626 0.0514852 5.82639 0.0702075 6.04183 0.117013C7.2502 0.379121 8.23843 1.00163 8.97844 1.98921C9.89174 3.20146 10.1915 4.56817 9.88237 6.05189C9.63414 7.24542 9.00654 8.21896 8.03704 8.96316C6.9926 9.76353 5.80297 10.1005 4.49625 9.97415C3.41902 9.87118 2.46825 9.44525 1.66267 8.72446C0.805578 7.95685 0.271648 7.00203 0.0749374 5.86467C0.0468358 5.67277 0.0234179 5.48087 0 5.28897ZM9.22667 4.99878C9.22667 2.66789 7.3345 0.781644 5.00207 0.776964C2.67433 0.776964 0.782159 2.66321 0.777476 4.9941C0.772792 7.32499 2.67433 9.22527 5.00676 9.22059C7.33919 9.21591 9.22667 7.32499 9.22667 4.99878Z" fill="#636363"/>
<path d="M5.39083 3.74475C5.39083 4.07238 5.39083 4.40002 5.39083 4.73233C5.39083 4.80722 5.40957 4.85403 5.47514 4.90083C5.90603 5.21911 6.32755 5.54206 6.75844 5.86034C6.90363 5.96799 6.97389 6.10372 6.93174 6.28158C6.86617 6.55773 6.55236 6.66538 6.31819 6.49688C6.05122 6.3003 5.78426 6.09904 5.52197 5.90246C5.28311 5.7246 5.04425 5.54206 4.8007 5.3642C4.68361 5.27527 4.61804 5.16294 4.61804 5.01785C4.61804 4.25492 4.61804 3.48732 4.61804 2.7244C4.61804 2.52314 4.74918 2.364 4.93184 2.33124C5.10982 2.29847 5.29248 2.39208 5.35805 2.56526C5.38147 2.62611 5.39083 2.69632 5.39083 2.76652C5.39083 3.08948 5.39083 3.41711 5.39083 3.74475Z" fill="#636363"/>
</svg>
