<svg id="圖層_1" data-name="圖層 1" xmlns="http://www.w3.org/2000/svg" viewBox="0 0 55 55"><defs><style>.cls-1{fill:#fff;}</style></defs><title>2020-09-30-主題教材-清稿修改</title><path class="cls-1" d="M43.1,8.6H33.8a6.9,6.9,0,0,0-6.3-4.7,6.9,6.9,0,0,0-6.3,4.7H11.9a4.6,4.6,0,0,0-4.4,4.7V46.4a4.6,4.6,0,0,0,4.4,4.7H43.1a4.6,4.6,0,0,0,4.4-4.7V13.3A4.6,4.6,0,0,0,43.1,8.6Zm-15.6,0A2.3,2.3,0,0,1,29.7,11a2.2,2.2,0,1,1-4.4,0A2.3,2.3,0,0,1,27.5,8.6Zm4.4,33.1H16.4V36.9H31.9Zm6.7-9.5H16.4V27.5H38.6Zm0-9.4H16.4V18.1H38.6Z"/></svg>