<svg id="icon_category_electronic" xmlns="http://www.w3.org/2000/svg" xmlns:xlink="http://www.w3.org/1999/xlink" width="44" height="44" viewBox="0 0 44 44">
  <defs>
    <clipPath id="clip-path">
      <rect id="Rectangle_1922" data-name="Rectangle 1922" width="44" height="44" transform="translate(745 58)" fill="#fff" stroke="#707070" stroke-width="1"/>
    </clipPath>
    <linearGradient id="linear-gradient" x1="0.5" x2="0.5" y2="1" gradientUnits="objectBoundingBox">
      <stop offset="0" stop-color="#b72e2d"/>
      <stop offset="1" stop-color="#320100"/>
    </linearGradient>
  </defs>
  <g id="Mask_Group_116" data-name="Mask Group 116" transform="translate(-745 -58)" clip-path="url(#clip-path)">
    <g id="slot-machine-jackpot-casino-icon-260nw-1159729639" transform="translate(736.06 -317.131)">
      <path id="Path_3754" data-name="Path 3754" d="M31.492,382.075c1.769,0,3.481.037,5.187-.016,1.031-.031,1.5.311,1.479,1.4-.025,1.5.093,1.572,1.6,1.579,1.906.006,3.811.034,5.717,0,.85-.016,1.18.308,1.177,1.158q-.028,8.692,0,17.386c0,.943-.4,1.18-1.267,1.177-2.011-.009-2.011.025-2.011,2.011,0,2.139-.025,4.278.016,6.417.019.906-.318,1.233-1.227,1.23q-14.3-.033-28.589,0c-1.08,0-1.414-.383-1.382-1.442.068-2.214.022-4.434.016-6.651,0-1.432-.137-1.563-1.5-1.575-1.759-.016-1.762-.016-1.762-1.741V386.556c0-1.473.028-1.5,1.5-1.507,1.828-.006,3.655,0,5.483,0,1.376-.006,1.641-.193,1.575-1.519-.056-1.149.38-1.544,1.482-1.466.89.062,1.79-.019,2.684.022,1.392.062,2.466.006,3.388-1.516,1.3-2.139,4.568-1.784,5.875.38C31.127,381.275,31.274,381.639,31.492,382.075Zm3.17,12.956c0,1.906.012,3.811-.006,5.717-.006.769.29,1.155,1.1,1.149,2.176-.016,4.356-.019,6.535,0,.791.006,1.155-.358,1.158-1.118.006-3.852,0-7.7.006-11.551,0-.841-.4-1.158-1.233-1.143-2.061.034-4.122.05-6.184-.009-1.105-.031-1.417.442-1.386,1.47C34.7,391.373,34.661,393.2,34.661,395.031Zm-2.457.044c0-1.906-.012-3.811.006-5.717.006-.856-.311-1.286-1.236-1.273-2.139.034-4.278.028-6.417.006-.794-.009-1.124.327-1.121,1.115q.019,5.773,0,11.548c0,.85.358,1.164,1.2,1.149,1.906-.037,3.811-.009,5.717-.009,1.818,0,1.856-.034,1.856-1.8Q32.208,397.583,32.2,395.075Zm-11.253-.162h0c0-1.828-.022-3.655.009-5.48.016-.912-.3-1.364-1.283-1.345q-3.148.061-6.3,0c-.937-.019-1.224.414-1.217,1.273q.028,5.656,0,11.312c0,.887.352,1.252,1.258,1.23,2.021-.04,4.045-.069,6.062.009,1.164.044,1.5-.458,1.473-1.519C20.924,398.568,20.952,396.74,20.952,394.913Zm6.934,13.557c-3.73,0-7.457.037-11.187-.022-1.183-.019-1.47.479-1.423,1.541.065,1.485.171,1.691,1.4,1.691,7.42.006,14.839-.019,22.256.022,1.261.006,1.361-.657,1.351-1.628-.009-.94-.028-1.65-1.33-1.628C35.269,408.51,31.579,408.469,27.886,408.469Z" transform="translate(0 0)" fill="url(#linear-gradient)"/>
      <path id="Path_3755" data-name="Path 3755" d="M124.37,431.636v-7.127a5.826,5.826,0,0,1,5.3.909c.034-.349.084-.632.084-.915,0-4.515,0-9.026.006-13.541a1.429,1.429,0,0,0-.648-1.448,2.06,2.06,0,0,1-.33-3.07,2.082,2.082,0,0,1,3.023-.016,1.957,1.957,0,0,1-.221,3.048,1.567,1.567,0,0,0-.669,1.569c.006,5.371-.075,10.742.044,16.11.044,1.946-.978,3.095-2.242,4.213a1.261,1.261,0,0,1-.757.258C126.8,431.652,125.64,431.636,124.37,431.636Z" transform="translate(-79.49 -18.357)" fill="url(#linear-gradient)"/>
      <path id="Path_3756" data-name="Path 3756" d="M102.673,417.94c-.352.841-.61,1.482-.887,2.111-.788,1.781-1.585,3.559-2.447,5.5H97.713a14.418,14.418,0,0,1,2.927-6.24H97.05v-1.37Z" transform="translate(-60.676 -26.726)" fill="url(#linear-gradient)"/>
      <path id="Path_3757" data-name="Path 3757" d="M60.88,419.325V417.93h5.492a5.311,5.311,0,0,1-.486,1.737,12.551,12.551,0,0,0-2.317,5.844h-2.3c.99-2.133,1.924-4.135,2.877-6.187Z" transform="translate(-35.768 -26.719)" fill="url(#linear-gradient)"/>
      <path id="Path_3758" data-name="Path 3758" d="M24.66,417.84H30.2a5.459,5.459,0,0,1-.489,1.731,12.679,12.679,0,0,0-2.32,5.872H25.37a13.829,13.829,0,0,1,2.942-6.159H24.729C24.707,418.762,24.685,418.36,24.66,417.84Z" transform="translate(-10.825 -26.657)" fill="url(#linear-gradient)"/>
    </g>
  </g>
</svg>
