<svg id="icon_category_live" xmlns="http://www.w3.org/2000/svg" xmlns:xlink="http://www.w3.org/1999/xlink" width="44" height="44" viewBox="0 0 44 44">
  <defs>
    <clipPath id="clip-path">
      <rect id="Rectangle_1928" data-name="Rectangle 1928" width="44" height="44" transform="translate(9 9)" fill="#fff" stroke="#707070" stroke-width="1"/>
    </clipPath>
    <linearGradient id="linear-gradient" x1="0.5" x2="0.5" y2="1" gradientUnits="objectBoundingBox">
      <stop offset="0" stop-color="#b72e2d"/>
      <stop offset="1" stop-color="#320100"/>
    </linearGradient>
  </defs>
  <g id="Group_122" data-name="Group 122" transform="translate(-9 -9)" clip-path="url(#clip-path)">
    <path id="Union_11" data-name="Union 11" d="M11764.751,17399.211a3.756,3.756,0,0,1-3.751-3.75v-15a3.752,3.752,0,0,1,3.751-3.752h15a3.752,3.752,0,0,1,3.751,3.752v15a3.756,3.756,0,0,1-3.751,3.75Zm10.314-7.033a1.408,1.408,0,1,0,1.405-1.406A1.407,1.407,0,0,0,11775.065,17392.178Zm-8.437,0a1.406,1.406,0,1,0,1.406-1.406A1.4,1.4,0,0,0,11766.629,17392.178Zm4.218-4.219a1.406,1.406,0,1,0,1.406-1.406A1.405,1.405,0,0,0,11770.847,17387.959Zm4.219-4.219a1.408,1.408,0,1,0,1.405-1.41A1.408,1.408,0,0,0,11775.065,17383.74Zm-8.437,0a1.406,1.406,0,1,0,1.406-1.41A1.405,1.405,0,0,0,11766.629,17383.74Zm19.563.721-1.2-.746v-4.307a4,4,0,0,0-4-4h-8.615a3.748,3.748,0,0,1-.03-3.994l7.912-12.66a3.73,3.73,0,0,1,5.14-1.187l12.659,7.908a3.744,3.744,0,0,1,1.188,5.145l-7.908,12.658a3.733,3.733,0,0,1-5.144,1.184Zm-.843-10.973a1.4,1.4,0,1,0,1.93-.445,1.4,1.4,0,0,0-1.93.445Zm-1.48-6.428a1.4,1.4,0,0,0,.445,1.93,1.425,1.425,0,0,0,.738.209,1.4,1.4,0,0,0,.742-2.584,1.391,1.391,0,0,0-1.926.445Z" transform="translate(-11749.25 -17347.021)" fill="url(#linear-gradient)"/>
  </g>
</svg>
