<svg id="icon_category_sport" xmlns="http://www.w3.org/2000/svg" xmlns:xlink="http://www.w3.org/1999/xlink" width="44" height="44" viewBox="0 0 44 44">
  <defs>
    <clipPath id="clip-path">
      <rect id="Rectangle_1925" data-name="Rectangle 1925" width="44" height="44" transform="translate(9 9)" fill="#fff" stroke="#707070" stroke-width="1"/>
    </clipPath>
    <linearGradient id="linear-gradient" x1="0.5" x2="0.5" y2="1" gradientUnits="objectBoundingBox">
      <stop offset="0" stop-color="#b72e2d"/>
      <stop offset="1" stop-color="#320100"/>
    </linearGradient>
  </defs>
  <g id="Mask_Group_119" data-name="Mask Group 119" transform="translate(-9 -9)" clip-path="url(#clip-path)">
    <g id="Group_6543" data-name="Group 6543" transform="translate(8.998 9)">
      <path id="Union_9" data-name="Union 9" d="M17.207,43.481,22,40l4.791,3.479a22.342,22.342,0,0,1-9.58,0ZM23.29,37.75V30.424l6.316-4.584,6.969,2.293,2.5,7.759c-.468.576-.973,1.132-1.5,1.667A22,22,0,0,1,29.9,42.548ZM6.422,37.559a21.471,21.471,0,0,1-1.546-1.715L7.4,28.094l6.98-2.257,6.323,4.591v7.325l-6.611,4.795A21.984,21.984,0,0,1,6.422,37.559Zm32.7-9.95,4.8-3.469a21.713,21.713,0,0,1-2.981,9.106ZM.066,24.08,4.857,27.56,3.023,33.192A21.728,21.728,0,0,1,.066,24.08Zm16.063-.165,2.24-6.894h7.256l2.243,6.894L22,28.172Zm14.283-.526L28,15.962l4.33-5.912,8.181.015A21.793,21.793,0,0,1,44,20.9L37.38,25.68ZM0,20.838A21.8,21.8,0,0,1,3.519,10.011l8.182.012L16,15.958l-2.414,7.423-6.98,2.258Zm18.093-6.4-4.3-5.936L16.333.733A22.259,22.259,0,0,1,27.722.748l2.519,7.78-4.332,5.914Zm14.52-6.975L30.781,1.814a21.974,21.974,0,0,1,6.794,4.63c.336.336.657.681.97,1.035ZM5.488,7.436c.3-.34.609-.67.931-.991A22.027,22.027,0,0,1,13.271,1.79L11.424,7.44Z" transform="translate(0.002)" fill="url(#linear-gradient)"/>
    </g>
  </g>
</svg>
