<?xml version="1.0" encoding="utf-8"?>
<!-- Generator: Adobe Illustrator 23.1.0, SVG Export Plug-In . SVG Version: 6.00 Build 0)  -->
<svg version="1.1" id="圖層_1" xmlns="http://www.w3.org/2000/svg" xmlns:xlink="http://www.w3.org/1999/xlink" x="0px" y="0px"
	 viewBox="0 0 180.19 246.56" style="enable-background:new 0 0 180.19 246.56;" xml:space="preserve">
<style type="text/css">
	.st0{fill:#FFFFFF;}
	.st1{fill:none;stroke:#040000;stroke-width:2.1765;stroke-linecap:round;stroke-linejoin:round;stroke-miterlimit:10;}
	.st2{enable-background:new    ;}
	.st3{fill:#B2B2B2;}
	.st4{fill:#040000;}
	.st5{fill:#FFFFFF;stroke:#040000;stroke-miterlimit:10;}
	.st6{fill:none;stroke:#040000;stroke-width:2;stroke-linecap:round;}
	.st7{fill:#64BEFA;}
	.st8{fill-rule:evenodd;clip-rule:evenodd;fill:#00663E;}
	.st9{fill-rule:evenodd;clip-rule:evenodd;fill:#3D1B07;}
	.st10{fill-rule:evenodd;clip-rule:evenodd;fill:#D27133;}
	.st11{fill-rule:evenodd;clip-rule:evenodd;fill:#E2CAB6;}
	.st12{fill-rule:evenodd;clip-rule:evenodd;fill:#F98300;}
	.st13{fill-rule:evenodd;clip-rule:evenodd;fill:#651906;}
	.st14{fill-rule:evenodd;clip-rule:evenodd;fill:#351805;}
	.st15{fill-rule:evenodd;clip-rule:evenodd;fill:#45260C;}
	.st16{fill-rule:evenodd;clip-rule:evenodd;fill:#FBB98C;}
	.st17{fill-rule:evenodd;clip-rule:evenodd;fill:#FAAD7B;}
	.st18{fill-rule:evenodd;clip-rule:evenodd;fill:#FFA8AD;}
	.st19{fill-rule:evenodd;clip-rule:evenodd;fill:#F9A873;}
	.st20{fill-rule:evenodd;clip-rule:evenodd;fill:#4D0C01;}
	.st21{fill-rule:evenodd;clip-rule:evenodd;fill:#F79961;}
	.st22{fill-rule:evenodd;clip-rule:evenodd;fill:#F39157;}
	.st23{fill-rule:evenodd;clip-rule:evenodd;fill:#FAAD79;}
	.st24{fill-rule:evenodd;clip-rule:evenodd;fill:#891207;}
	.st25{fill-rule:evenodd;clip-rule:evenodd;fill:#FFFFFF;}
	.st26{fill-rule:evenodd;clip-rule:evenodd;fill:#0A6ECA;}
	.st27{fill-rule:evenodd;clip-rule:evenodd;fill:#A14616;}
	.st28{fill-rule:evenodd;clip-rule:evenodd;fill:#9B3F13;}
	.st29{fill-rule:evenodd;clip-rule:evenodd;fill:#763915;}
	.st30{fill-rule:evenodd;clip-rule:evenodd;fill:#2E1002;}
	.st31{fill-rule:evenodd;clip-rule:evenodd;fill:#CB6224;}
	.st32{fill-rule:evenodd;clip-rule:evenodd;fill:#F78993;}
	.st33{fill-rule:evenodd;clip-rule:evenodd;fill:#7E290F;}
	.st34{fill-rule:evenodd;clip-rule:evenodd;fill:#5A1404;}
	.st35{opacity:0.95;}
	.st36{fill-rule:evenodd;clip-rule:evenodd;fill:#F59A60;}
	.st37{fill-rule:evenodd;clip-rule:evenodd;fill:#583B1B;}
	.st38{fill-rule:evenodd;clip-rule:evenodd;fill:#846251;}
	.st39{fill-rule:evenodd;clip-rule:evenodd;fill:#503825;}
	.st40{fill-rule:evenodd;clip-rule:evenodd;fill:#392515;}
	.st41{fill-rule:evenodd;clip-rule:evenodd;fill:#240901;}
	.st42{fill-rule:evenodd;clip-rule:evenodd;fill:#FF514D;}
	.st43{fill-rule:evenodd;clip-rule:evenodd;fill:#F74646;}
	.st44{fill-rule:evenodd;clip-rule:evenodd;fill:#F99D63;}
	.st45{fill-rule:evenodd;clip-rule:evenodd;fill:#4AB879;}
	.st46{fill-rule:evenodd;clip-rule:evenodd;fill:#72513E;}
	.st47{fill-rule:evenodd;clip-rule:evenodd;fill:#331907;}
	.st48{opacity:0.8;}
	.st49{fill:#FCCD56;}
	.st50{fill:#FEDAD7;}
	.st51{fill:#EA96BD;}
	.st52{fill:#F7CCDF;}
	.st53{fill:#996C41;}
	.st54{fill:#FDA39C;}
	.st55{fill:#FEBFBA;}
	.st56{fill:#333333;}
	.st57{fill:#A9ECFC;}
	.st58{opacity:0.7;fill:#FFFFFF;}
	.st59{fill:#0588E8;}
	.st60{fill:#4D4D4D;}
	.st61{fill:#F3A730;}
	.st62{opacity:0.6;fill:none;stroke:#FFFFFF;stroke-miterlimit:10;}
	.st63{fill:none;stroke:#0588E8;stroke-miterlimit:10;}
	.st64{fill:#F69632;}
	.st65{fill:#727171;}
	.st66{fill:#F79D19;}
	.st67{fill:#9FC7FF;}
	.st68{fill:#E6E6E6;}
	.st69{fill:#FF5C7D;}
	.st70{fill:#F72653;}
	.st71{fill:#F8C110;}
	.st72{fill:#4CAE50;}
	.st73{fill:#439F47;}
	.st74{fill:#BE6724;}
	.st75{fill:#F5F5F5;}
	.st76{fill:#80DDE9;}
	.st77{fill:#FF7043;}
	.st78{fill:none;stroke:#FFFFFF;stroke-width:2;stroke-linecap:round;stroke-linejoin:round;stroke-miterlimit:10;}
	.st79{fill:#FFA8AD;}
	.st80{fill:#C69C6D;}
	.st81{fill:#A67C52;}
	.st82{fill:#8C6239;}
	.st83{fill:#F9CFCF;}
	.st84{fill:#FCF27C;}
	.st85{fill:#8AE2F5;}
	.st86{fill:#FC7010;}
	.st87{fill:#F45CC1;}
	.st88{fill:#FF8939;}
	.st89{fill:#FF7BAC;}
	.st90{fill:#999999;}
	.st91{fill:#1A1A1A;}
	.st92{fill:#0A6ECA;}
	.st93{fill:#D8E5EF;}
	.st94{fill:#FFFF4D;}
	.st95{fill:#40D7FF;}
	.st96{fill:#FF7680;}
	.st97{fill:#EEF7FF;}
	.st98{fill:#FFE150;}
	.st99{fill:#53F46E;}
	.st100{fill:#F9C795;}
	.st101{fill:#FF0000;}
	.st102{fill:#EDF7F9;}
	.st103{fill:#4AB879;}
	.st104{fill:#E96045;}
	.st105{fill:#7F8082;}
	.st106{fill:#5CA233;}
	.st107{fill:#F2A038;}
	.st108{fill:#DB2525;}
	.st109{fill:#58595B;}
	.st110{fill:#F0911F;}
	.st111{fill:#E8512B;}
	.st112{fill:#6C6E71;}
	.st113{fill:#767777;}
	.st114{opacity:0.1;}
	.st115{fill:#FC7ABB;}
	.st116{fill:#3DE280;}
	.st117{fill:#5D90F4;}
	.st118{clip-path:url(#SVGID_2_);fill:#A9ECFC;}
	.st119{fill:#F7D7D7;}
	.st120{fill:#FFFFFF;stroke:#FFFFFF;stroke-width:3;stroke-miterlimit:10;}
	.st121{fill:#FFFFFF;stroke:#A4EBF7;stroke-width:3;stroke-miterlimit:10;}
	.st122{fill:#FFCD00;}
	.st123{clip-path:url(#SVGID_6_);fill:#A9ECFC;}
	.st124{fill:#F7ADCF;}
	.st125{fill:#B1EFDD;}
	.st126{fill:#9EB5E8;}
	.st127{fill:#FFE9AB;}
	.st128{clip-path:url(#SVGID_8_);fill:#A9ECFC;}
	.st129{fill:#4D87A4;}
	.st130{fill:#FFFFFF;stroke:#040000;stroke-width:0;stroke-miterlimit:10;}
	.st131{fill:#8C8C8C;}
	.st132{fill:none;stroke:#B3B3B3;stroke-miterlimit:10;}
	.st133{fill:none;stroke:#B3B3B3;stroke-miterlimit:10;stroke-dasharray:0.9817,1.9634,0.9817,1.9634;}
	.st134{fill:none;stroke:#B3B3B3;stroke-miterlimit:10;stroke-dasharray:11.7802,0.9817,0.9817,1.9634,0.9817,1.9634;}
	.st135{fill:none;stroke:#0A6ECA;stroke-miterlimit:10;}
	.st136{fill:none;stroke:#B3B3B3;stroke-miterlimit:10;stroke-dasharray:0.9866,1.9732,0.9866,1.9732;}
	.st137{fill:none;stroke:#B3B3B3;stroke-miterlimit:10;stroke-dasharray:11.8389,0.9866,0.9866,1.9732,0.9866,1.9732;}
	.st138{fill:none;stroke:#B3B3B3;stroke-width:0.5;stroke-miterlimit:10;}
	.st139{fill:none;stroke:#B3B3B3;stroke-width:0.5;stroke-miterlimit:10;stroke-dasharray:0.9866,1.9732,0.9866,1.9732;}
	
		.st140{fill:none;stroke:#B3B3B3;stroke-width:0.5;stroke-miterlimit:10;stroke-dasharray:11.8389,0.9866,0.9866,1.9732,0.9866,1.9732;}
	.st141{fill:#808080;}
</style>
<g>
	<path class="st8" d="M68.04,203.36c-1.74,1.76-16.71,16.17-23.38,14.27c-6.67-1.9-3.3-9.22,4.3-17.1
		c7.6-7.88,15.69-9.95,17.62-9.61C76.9,192.76,72.94,198.42,68.04,203.36z"/>
	<path class="st9" d="M42.15,157.41c1.68-1.8,21.53-14.57,21.53-14.57s-4.27-1.47-3.49-1.32c8.17,1.58,28.89,8.25,28.1,18.55
		c-0.12,1.56-18.15,33.56-23.52,34.34c-5.37,0.78-27.91-10.02-29.28-11.98C34.11,180.46,42.15,157.41,42.15,157.41z"/>
	<path class="st10" d="M68.31,149.2c-5.03-17.85-36.49,5.75-37,5.33c-0.72-0.6,0.9-2.04,2.04-2.93c12.11-9.56,22.5-16.12,37.36-9.88
		c8.98,3.77,14.13,7.84,13.89,9.7c-0.24,1.86-0.38,3.66-0.98,3.6C83.01,154.96,68.31,149.2,68.31,149.2z"/>
	<path class="st11" d="M43.62,212.44c1.83-6.28,11.73-14.53,15.79-17.13c2.58-1.66,5.92-3.28,8.01-4.25
		c-0.37-0.05-0.65-0.09-0.83-0.13c-1.93-0.34-10.01,1.73-17.62,9.61c-7.08,7.34-10.49,14.19-5.54,16.63
		C43.05,216.12,42.98,214.63,43.62,212.44z"/>
	<path class="st12" d="M60.89,198.55c-0.39-0.29-0.47-0.84-0.18-1.23c0.29-0.39,0.84-0.47,1.23-0.18c0.09,0.07,1.26,1.54,2.21,3.06
		c0.52,0.83,1,1.71,1.28,2.44c0.75,2.01,0.82,3.37,0.82,3.37c0.02,0.48-0.35,0.89-0.83,0.91c-0.48,0.02-0.89-0.35-0.91-0.83
		c0,0-0.06-1.09-0.72-2.85c-0.22-0.6-0.65-1.37-1.12-2.12C61.82,199.77,60.94,198.58,60.89,198.55z"/>
	<path class="st12" d="M63.47,208.1c0.12,0.47-0.15,0.95-0.62,1.07c-0.47,0.12-0.95-0.15-1.07-0.62c-0.42-1.6-1-2.96-1.73-4.23
		c-0.74-1.28-1.64-2.49-2.72-3.75c-0.31-0.37-0.27-0.92,0.09-1.23c0.37-0.31,0.92-0.27,1.23,0.09c1.14,1.33,2.11,2.62,2.91,4.01
		C62.37,204.86,63,206.36,63.47,208.1z"/>
	<path class="st12" d="M60.25,210.24c0.04,0.48-0.31,0.91-0.79,0.95c-0.48,0.04-0.91-0.31-0.95-0.79c-0.05-0.61-0.77-2.14-1.61-3.63
		c-0.82-1.45-1.73-2.8-2.21-3.14c-0.39-0.28-0.49-0.82-0.21-1.22c0.28-0.39,0.82-0.49,1.22-0.21c0.7,0.49,1.8,2.06,2.72,3.7
		C59.37,207.58,60.18,209.38,60.25,210.24z"/>
	<path class="st13" d="M99.11,78.33c15.97-17.23,23.5-50.21,2.64-68.37C88.33-1.71,79.57-2.83,70.75,5.05
		c-48.87,5.96-27.77,49.3-42.89,61.81c-4.11,3.41,14.83,14.31,20.94,16.7c6.11,2.39,14.46,1.79,25.38-1.92
		C85.11,77.95,91.91,76.28,99.11,78.33z"/>
	<path class="st14" d="M107.84,229.61c-0.34-1.86-0.99-5.57-11.03-17.63c-10.04-12.06-27.74-20.6-27.74-20.6l-4.15,4.62
		c0,0,25.94,47.5,30.52,49.41C100.03,247.33,107.84,229.61,107.84,229.61z"/>
	<path class="st8" d="M29.52,197.87c-1.74,1.76-16.71,16.17-23.38,14.27c-6.67-1.9-3.3-9.22,4.3-17.1
		c7.6-7.88,15.69-9.95,17.62-9.61C38.38,187.27,34.42,192.93,29.52,197.87z"/>
	<path class="st11" d="M5.1,206.94c1.83-6.28,11.73-14.53,15.79-17.13c2.58-1.66,5.92-3.28,8.01-4.25
		c-0.37-0.05-0.65-0.09-0.83-0.13c-1.93-0.34-10.01,1.73-17.62,9.61c-7.08,7.34-10.49,14.19-5.54,16.63
		C4.53,210.63,4.46,209.14,5.1,206.94z"/>
	<path class="st12" d="M22.37,193.06c-0.39-0.29-0.47-0.84-0.18-1.23c0.29-0.39,0.84-0.47,1.23-0.18c0.09,0.07,1.26,1.54,2.21,3.06
		c0.52,0.83,1,1.7,1.28,2.44c0.75,2.01,0.82,3.37,0.82,3.37c0.02,0.48-0.35,0.89-0.83,0.91c-0.48,0.02-0.89-0.35-0.91-0.83
		c0,0-0.06-1.09-0.72-2.85c-0.22-0.6-0.65-1.37-1.12-2.12C23.3,194.28,22.42,193.09,22.37,193.06z"/>
	<path class="st12" d="M24.95,202.61c0.12,0.47-0.15,0.95-0.62,1.07c-0.47,0.12-0.95-0.15-1.07-0.62c-0.42-1.6-1-2.96-1.73-4.23
		c-0.74-1.28-1.64-2.49-2.72-3.75c-0.31-0.37-0.27-0.92,0.09-1.23c0.37-0.31,0.92-0.27,1.23,0.09c1.14,1.33,2.11,2.62,2.91,4.01
		C23.85,199.37,24.48,200.87,24.95,202.61z"/>
	<path class="st12" d="M21.73,204.75c0.04,0.48-0.31,0.91-0.79,0.95c-0.48,0.04-0.91-0.31-0.95-0.79c-0.05-0.61-0.77-2.14-1.61-3.63
		c-0.82-1.45-1.73-2.8-2.21-3.14c-0.39-0.28-0.49-0.82-0.21-1.22c0.28-0.39,0.82-0.49,1.22-0.21c0.7,0.49,1.8,2.06,2.72,3.7
		C20.85,202.08,21.66,203.89,21.73,204.75z"/>
	<path class="st15" d="M72.41,228.84c-0.34-1.86-2.95-7.99-12.99-20.05c-10.04-12.06-26.62-21.12-26.62-21.12
		c-3.64-0.64-6.22,6.53-3.27,10.21c7.8,9.72,24.7,42.75,28.53,44.35C62.63,244.13,72.41,228.84,72.41,228.84z"/>
	<path class="st15" d="M120.17,158.8c0,0,1.93,11.01,0.68,22.73c-1.25,11.72-7.3,49.13-18.3,61.17c-11,12.04-9.16-6.28-9.69-24.87
		c-0.52-18.59,5.89-49.36,5.89-49.36L120.17,158.8z"/>
	<path class="st15" d="M103.99,158.39c-0.26,5.24-12.04,51.58-25.92,69.91c-13.88,18.33-23.04,21.21-22.52,0
		c0.52-21.21,17.04-66.33,17.04-66.33L103.99,158.39z"/>
	<path class="st16" d="M55.03,98.94l10.74,14.79c0,0-17.12,23.35-22.15,21.67c-5.03-1.68-24.78-38.43-24.78-38.43
		c0,0.01,0.08,0.38-2.74-1.4c-2.87-1.8-6.62-6.42-6.62-6.42s-10.56-7.85-9.38-9.52c1.18-1.68,9.72,6.3,10.71,6.31
		c0.98,0.01-9.56-10.92-7.99-12.45c1.57-1.54,10.95,10.11,11.46,9.78c0.5-0.33-10.73-14-8.63-15.28
		c2.1-1.27,11.91,13.18,12.27,13.06c0.36-0.12-4.67-12.12-3.23-12.98c1.44-0.86,6.1,9.7,7.34,12.25c0.34,0.7,0.82,1.8,1.32,3.07
		c0.29-3.34-1.21-6.23,0.23-8.58c0.68-1.11,2.91,6.93,2.99,7.65c0.06,0.53-0.55,5.73-1.08,8.75c0.02,0.33,0.01,0.63-0.02,0.89
		l19.11,27.37L55.03,98.94L55.03,98.94z M18.84,96.97L18.84,96.97L18.84,96.97L18.84,96.97z"/>
	<path class="st16" d="M123.6,83.73l20.56,10.4l-0.76-33.87l8.23,0.5c0,0,5.77,41.33,2.71,45.65c-3.07,4.32-30.67-4.4-30.67-4.4
		L123.6,83.73z"/>
	<path class="st17" d="M148.38,60.56l3.26,0.2c0,0,5.77,41.33,2.7,45.65c-3.07,4.32-30.67-4.4-30.67-4.4l-0.01-3.51
		c3.7,1.62,7.33,2.95,8.46,2.51c2.51-0.96,5.8-7.84,5.8-7.84s-1.61,7.72,1.5,9.76c3.11,2.04,10.78,1.92,11.61,0.24
		c0.84-1.68-4.2-40.94-3.07-41.96C148.1,61.1,148.23,60.87,148.38,60.56z"/>
	<path class="st18" d="M47.88,111.26l11.33,12.45l12.9-13.91c0.17-0.19,17.65,13.66,11.7,37.08c-1.13,4.47-7.82,8.23-10.73,13.72
		c-6.17,11.64,40.58,20.1,47.77,20.93c1.44-2.62,2.98-16.68-0.85-24.33c-10.09-20.17,2.91-42.66,1.83-52.33
		c0,0,13.8,2.97,13.56,1.27c-0.24-1.69,3.79-15.27,2.34-15.27c-1,0-21.12-12.49-25.26-12.73c-4.47-0.26-9.52-0.5-13.35,0.19
		c-9.08,1.65-15.5,4.13-23.6,4.55c-2.81,0.72-8.16,2.19-11.47,5.07C57.06,94.04,51.75,104.38,47.88,111.26z"/>
	<path class="st19" d="M99.11,78.33c-0.81,0.14-2.37,0.15-3.15,0.3c-4.85,0.9-8.45,2.07-14.54,2.99c-1.98,0.3-3.9,1.12-5.92,1.26
		c-0.12,0.46-0.18,0.94-0.18,1.42c0,4.84,6.15,8.77,13.73,8.77c7.58,0,13.73-3.93,13.73-8.77C102.79,82,101.4,79.9,99.11,78.33z"/>
	<path class="st19" d="M78.59,69.73c0.6,1.94,3.39,16.33,3.39,16.33s7.02,3.15,11.13,0.6c4.11-2.54,4.48-4.23,4.48-4.23l-6.05-14.16
		L78.59,69.73z"/>
	<path class="st16" d="M73.05,9.17c16.39-3.53,29.11,9.81,33.15,28.54c4.03,18.73-2.15,35.76-18.54,39.29
		c-16.39,3.53-29.77-9.28-33.81-28.01C49.82,30.26,56.66,12.71,73.05,9.17z"/>
	<path class="st20" d="M68.88,40.94c1.52,0,3.07,2.05,3.47,4.58c0.4,2.53-0.51,4.58-2.03,4.58c-1.52,0-3.07-2.05-3.47-4.58
		C66.45,42.98,67.36,40.94,68.88,40.94z"/>
	<path class="st20" d="M94.29,33.09c1.52,0,3.07,2.05,3.47,4.58c0.4,2.53-0.51,4.58-2.03,4.58c-1.52,0-3.07-2.05-3.47-4.58
		C91.86,35.14,92.77,33.09,94.29,33.09z"/>
	<path class="st21" d="M81.27,43.99c0,0.74,7.48,5.45,7.48,5.45c1.35,2.21-5.56,6.63-7.29,4.52c2.44-0.22,4.96-1.85,5.86-4.18
		C85.85,48.87,81.13,45.94,81.27,43.99z"/>
	<path class="st16" d="M52.25,45.58c3.04,0,6.07,3.26,6.76,7.29c0.69,4.03-1.22,7.29-4.26,7.29c-3.04,0-6.07-3.26-6.76-7.29
		C47.3,48.84,49.21,45.58,52.25,45.58z"/>
	<path class="st16" d="M107.65,31.14c3.04,0,5.7,3.26,5.94,7.29c0.24,4.03-2.04,7.29-5.08,7.29s-5.7-3.26-5.94-7.29
		C102.33,34.4,104.61,31.14,107.65,31.14z"/>
	<path class="st13" d="M72.46,38.25c-4.26-1.8-10.43-0.43-11.21,4.85c-0.39,2.64-1.37,1.38-1.3-0.29c0.27-6.12,9.35-9.49,12.81-6.7
		C73.53,36.74,72.92,38.26,72.46,38.25z"/>
	<path class="st22" d="M52.83,48.09c-4.06,0-3.94,7.34,0.56,9.29c2.4,1.04,2.76-1.08,2.32-1.76c-0.44-0.68-1.56-0.36-2.32-1.84
		c-0.76-1.48,0.46-1.08,0.64-2.72C54.21,49.41,52.83,48.09,52.83,48.09z"/>
	<path class="st22" d="M106.35,33.59c3.43-2.17,7.25,4.1,4.49,8.15c-1.47,2.16-2.91,0.56-2.91-0.25c0.01-0.81,1.13-1.14,0.98-2.8
		c-0.15-1.66-0.96-0.66-2-1.96C105.89,35.44,106.35,33.59,106.35,33.59z"/>
	<path class="st23" d="M79.65,74.4c-9.43-0.67-17.41-6.69-22.51-15.79c-0.04,0.04-0.08,0.08-0.13,0.12
		c4.8,10.68,13.17,17.93,23.27,18.78c2.37,0.2,4.83,0.04,7.37-0.5c2.42-0.52,4.61-1.33,6.58-2.4c9.51-5.16,13.87-16.25,13.06-29.05
		c-0.08-0.02-0.15-0.05-0.23-0.07c-0.02,11.75-4.7,21.69-14.03,26.31c-1.86,0.92-3.9,1.63-6.12,2.09
		C84.42,74.4,81.99,74.57,79.65,74.4z"/>
	<path class="st24" d="M93.94,55.12c0.27,0.49,0.49,1.01,0.68,1.56c1.84,5.32-0.86,11.06-6.04,12.82
		c-5.18,1.76-10.87-1.12-12.71-6.44c-0.19-0.54-0.33-1.09-0.42-1.64L93.94,55.12z"/>
	<path class="st25" d="M77.2,60.81l0.6,1.67c0.24,0.67,0.98,1.02,1.65,0.78l13-4.66c0.67-0.24,1.02-0.98,0.78-1.65l-0.5-1.41
		L77.2,60.81z"/>
	<path class="st18" d="M86.66,95.92c4.22,0,8.03,1.76,10.76,4.6c2.75-3.01,6.67-4.89,11.03-4.89c8.31,0,15.05,6.83,15.05,15.26
		c0,8.43-6.74,15.27-15.05,15.27c-4.22,0-8.03-1.76-10.76-4.6c-2.75,3.01-6.68,4.89-11.04,4.89c-8.31,0-15.05-6.83-15.05-15.27
		C71.61,102.76,78.35,95.92,86.66,95.92z"/>
	<path class="st13" d="M77.78,7.66c-0.91,14.58-12.72,33.06-28.5,36.2c-12.42,2.47,6.17-26.38,9.1-29.14
		C65.8,7.75,77.78,7.66,77.78,7.66z"/>
	<path class="st13" d="M71.04,9.34c2.86,3.22,3.7,8.25,16.63,11.36c12.93,3.11,19.4,8.5,19.4,8.5s-0.58-10.79-11.97-17.96
		C83.69,4.07,71.04,9.34,71.04,9.34z"/>
	<path class="st13" d="M97.85,20.67c0.71,0.71,5.21,6.02,6.78,11.33c1.57,5.31,2.43,13.41,2.53,12.85
		c0.1-0.56,1.32-10.42-0.46-15.28c-1.77-4.86-2.88-6.98-2.88-6.98L97.85,20.67z"/>
	<path class="st13" d="M55.47,31.62c-0.23,0.98-1.25,7.86,0.22,13.21c1.47,5.34,5.01,12.67,4.63,12.25
		c-0.38-0.42-6.62-8.16-7.67-13.22c-1.06-5.06-1.23-7.45-1.23-7.45L55.47,31.62z"/>
	<path class="st13" d="M86.7,33.91c2.11-4.11,7.72-7.02,11.71-3.46c1.99,1.77,1.94,0.18,0.81-1.05c-4.13-4.52-13.26-1.29-14.12,3.08
		C84.91,33.44,86.35,34.21,86.7,33.91z"/>
	<path class="st16" d="M151.11,61.62c-1.04,0.2-5.45,1.49-7.94,0.29c-2.49-1.2-5.32-10.17-6.03-13.22
		c-0.71-3.05-4.1-15.42-2.22-15.57c1.87-0.15,5.95,13.73,6.35,13.61c0.4-0.12-1.22-19.22,1.53-19.42c2.75-0.2,2.56,19.11,3.24,19.08
		c0.68-0.03,0.67-16.35,3.14-15.98c2.47,0.37,0.95,16.8,1.8,16.16c0.86-0.64,2.71-13.16,4.94-12.42c2.22,0.75-1.5,14.44-1.5,14.44
		s-0.03,6.49-1.27,9.92C151.91,61.94,151.11,61.62,151.11,61.62z"/>
	<path class="st16" d="M151.9,48.19c0,0,1.03,1.78-0.54,6.27c-0.68,1.95-1.56,3.69-2.34,5.04c-1.01,1.76-1.85,2.84-1.85,2.84
		c1.75-0.17,3.36-0.62,3.94-0.73c0,0,0.35,0.14,0.95-0.77c0.3-0.46,0.67-1.19,1.08-2.33c1.24-3.43,1.27-9.92,1.27-9.92
		s3.72-13.69,1.5-14.44c-0.08-0.03-0.16-0.04-0.24-0.03c0.03,1.82-0.03,5.32-0.81,7.88C153.77,45.62,151.9,48.19,151.9,48.19z"/>
	
		<rect x="120.08" y="-4.93" transform="matrix(0.1573 -0.9876 0.9876 0.1573 92.6538 165.7309)" class="st26" width="46.7" height="67.01"/>
	
		<rect x="106.71" y="22.03" transform="matrix(0.1371 -0.9906 0.9906 0.1371 80.3426 140.6589)" class="st25" width="28.39" height="4.38"/>
	<path class="st16" d="M144.83,62.35c-0.43-0.42-1.39,0.02-2.41-1.03c-2.69-2.76-6.44-8.08-6.77-8.54
		c-0.45-0.64-4.17-9.27-2.79-8.71c3.66,1.48,3.88,6.62,8.66,9.41C146.87,56.59,148.58,61.38,144.83,62.35z"/>
	<path class="st17" d="M149.03,59.5c0.78-1.35,1.65-3.09,2.34-5.04c0.11-0.32,0.21-0.64,0.3-0.93l2.43,0.39
		c-0.19,1.63-0.48,3.32-0.94,4.6c-0.57,1.57-1.05,2.36-1.39,2.74c-0.29,0.32-3.91,1.37-3.95,1.01
		C147.72,61.38,149.03,59.5,149.03,59.5z"/>
	<path class="st27" d="M63.68,142.96c-1.66-0.22-3.05-4.27-16.77,2.6c-13.72,6.87-27.62,21.44-26.51,24.01
		c0,0,8.54,11.06,16.54,13.52c3.93,1.21,26.08-24.26,28.59-30.45C68.05,146.44,63.68,142.96,63.68,142.96z"/>
	<path class="st28" d="M63.68,142.96c-1.66-0.22-3.05-4.27-16.77,2.6c-13.72,6.87-27.62,21.44-26.51,24.01c0,0,2.52,3.27,6.11,6.65
		c-0.15-1.73-0.46-3.84-1.06-5.99c-1.44-5.15,15.59-21.29,25.5-22.75c8.92-1.31,12.53,4.07,13.96,6.41
		c0.27-0.47,0.48-0.89,0.62-1.25C68.05,146.44,63.68,142.96,63.68,142.96z"/>
	<path class="st29" d="M113.86,78.46c0,0-3.53,31.01-15.02,50.4c-7.65,12.91-32.94,14.97-43.12,27.96c0,0-8-4.24-6.76-5.71
		c17.37-20.57,50-9.1,55.98-62.96c0.72-6.47,0.15-7.51-0.09-10.27C108.03,76.38,111,76.77,113.86,78.46z"/>
	<path class="st30" d="M72.62,150.88c-2.68,9.29-13.05,23.35-17.48,32.56c-1.48,3.08-2.45,5.54-3.07,7.45
		c2.29,0.93,4.54,1.77,6.54,2.39c1.64-0.84,3.14-1.43,4.4-1.81c4.59-15.83,9.59-29.5,9.59-29.5c0.08-0.45,0.25-0.91,0.49-1.37
		c1.45-2.74,3.84-5.04,6.01-7.22C77.05,152.6,74.64,151.67,72.62,150.88z"/>
	<path class="st31" d="M72.62,150.88c2.02,0.78,4.43,1.72,6.48,2.5c1.08-1.09,2.11-2.14,2.94-3.2c0.36-0.45,0.68-0.91,0.95-1.37
		c-1.51-1.41-4.03-3.11-7.41-4.84c-0.82,0.36-1.64,0.73-2.46,1.1c0.02,0.13,0.04,0.27,0.06,0.41c0.15,1.23,0.11,2.55-0.18,3.96
		C72.88,149.91,72.76,150.39,72.62,150.88z"/>
	<path class="st32" d="M119.55,116.76c-2.27,5.99-11.09,9.41-11.09,9.41c3.92,0,7.49-1.52,10.17-4.01c3-2.79,4.88-6.8,4.88-11.25
		c0-2.1-0.42-4.11-1.18-5.93c-1.22-2.93-3.32-5.4-5.96-7.06c1.26,2.16,2.74,4.66,3.55,6.1C121.59,107,121.83,110.77,119.55,116.76z"
		/>
	<path class="st32" d="M122.33,104.97c2.46,0.51,13.28,2.67,13.06,1.17c-0.03-0.17,0-0.48,0.05-0.88c0.3-2.18,1.64-7.28,2.27-10.78
		c0.11-0.8,0.21-1.31,0.21-1.31s-3.29,6.89-5.8,7.84c-1.13,0.43-4.76-0.89-8.46-2.51c-4.54-1.99-9.2-4.44-9.5-4.67
		c-0.28-0.22,0.83,1.73,2.2,4.08C119.01,99.57,121.11,102.03,122.33,104.97z"/>
	<path class="st17" d="M18.84,96.97c0,0,19.75,36.76,24.78,38.43c2.85,0.95,9.58-6.14,14.89-12.46l-7.15-7.85
		c0.69,1.88,2.16,5.92,2.16,6.47c0,0.72-5.75,8.56-9.1,8.8c-3.35,0.24-21.91-31.73-22.21-32.3c-0.3-0.57,1.08-4.1,1.26-4.37
		c0.18-0.27-2.57,1.5-4.13,1.89c-1.56,0.39-5.6-4.1-6.52-5.24c-0.93-1.14-0.69-3.68-0.69-3.68l-1.8,1.41L0.09,79.62
		c-1.18,1.68,9.38,9.52,9.38,9.52s3.75,4.62,6.62,6.42C18.92,97.35,18.84,96.98,18.84,96.97z"/>
	<path class="st32" d="M77.03,118.45c-1.12-1.48-1.94-3.92-2.55-6.6c-0.58-2.54-0.95-5.3-1.2-7.66c-0.35-3.33-0.43-5.86-0.43-5.86
		s-4.71,7.4-8.76,13.09c-2.17,3.04-4.15,5.58-5.13,6.25c-2.81,1.92-7.96-3.53-7.96-3.53s0.14,0.38,0.36,0.96l7.15,7.85l0.7,0.77
		l12.43-13.4c-0.02,0.29-0.02,0.58-0.02,0.88c0,7.23,4.95,13.28,11.59,14.86c0.44,1.3,0.82,2.68,1.11,4.12
		c1.71-1.16,3.37-2.46,4.96-3.95c6.08-5.66,11.14-13.98,14.03-27.69c-1.2,3.05-2.7,6.64-4.29,9.73
		c-3.73,7.24-10.48,15.8-11.02,16.22c-0.34,0.27-3.21-0.28-6.19-1.96C80.11,121.56,78.37,120.22,77.03,118.45z"/>
	<g>
		<path class="st33" d="M72.11,12.63c-2.75,11.62-8.58,21.72-17.96,29.21C65,36.8,72.17,24.48,72.11,12.63z"/>
	</g>
	<g>
		<path class="st34" d="M66,10.83c-1.14,11.88-9.21,21.55-19.04,27.78C57.69,34.91,68.19,22.85,66,10.83z"/>
	</g>
	<g>
		<path class="st34" d="M59.77,14.66c-2.88,2.99-18.88,18.58-16.76,22.63c0.16-0.24,0.1-0.12,0.18-0.38l-0.01,0.05
			C49.04,28.22,54.12,23.63,59.77,14.66z"/>
	</g>
	<g>
		<path class="st34" d="M45.17,42.08c-1.66,5.26-6.77,20.07-10.3,24.9C41.44,64.44,44.77,47.39,45.17,42.08z"/>
	</g>
	<g>
		<path class="st33" d="M48.76,61.71c-2.69,4.15-5.44,7.76-8.5,11.73C43.55,71.64,50.89,63.92,48.76,61.71z"/>
	</g>
	<g>
		<path class="st34" d="M57.62,65.43c-2.15,3.9-5.36,9.38-9.22,11.61C50.93,78.81,58.05,71.12,57.62,65.43z"/>
	</g>
	<g>
		<path class="st34" d="M65.16,76.44l-0.01-0.02c-1.36,3.45-5.9,6.62-10.04,6.25c2.12-1.24,2.94-1.61,4.92-3.17
			C65.88,74.91,65.77,76.1,65.16,76.44L65.16,76.44z M65.01,76.19l-0.01,0c0,0.08,0.04,0.11,0.09,0.13
			C65.06,76.26,65.03,76.21,65.01,76.19z"/>
	</g>
	<g>
		<path class="st33" d="M74.5,79.19c-4.32,1.72-7.99,2.47-12.45,3.95C66.97,83.64,71.49,83.64,74.5,79.19z"/>
	</g>
	<g>
		<path class="st33" d="M63.49,72.01c-4.65,2.2-6.66,4.12-10.78,6.47C57.48,79.1,60.75,75.38,63.49,72.01z"/>
	</g>
	<g>
		<path class="st33" d="M74.5,7.12c3.15,10.4,14.07,11.57,22.93,12.51C86.9,15.87,81.85,16.36,74.5,7.12z"/>
	</g>
	<g>
		<path class="st34" d="M81.92,6.52c6.49,4.04,22.16,11.84,25.71,19.2c0,0.01-0.01,0.03-0.03,0.08c0.07,0.02,0.17,0.06,0.21-0.03
			C111.03,19.44,83.48,7.17,81.92,6.52z"/>
	</g>
	<g>
		<path class="st33" d="M84.32,2.81c10.17,6.74,5,3.54,15.52,9.62l-0.03-0.02c0.44,0.29,0.2,0.17,0.73,0.34
			C98.93,7.51,88.4,4.42,84.32,2.81z"/>
	</g>
	<g>
		<path class="st34" d="M76.18,6.04c8.01,6.54,3.68,4.07,12.87,7.6C81.22,7.86,85.48,10.44,76.18,6.04z"/>
	</g>
</g>
</svg>
