<svg width="13" height="13" viewBox="0 0 13 13" fill="none" xmlns="http://www.w3.org/2000/svg">
<path d="M6.50782 4.73295C7.79481 3.44597 9.0527 2.18807 10.3106 0.930172C10.4851 0.755666 10.6523 0.588431 10.8268 0.421196C11.394 -0.124136 12.1356 -0.138679 12.6373 0.370297C13.1463 0.879273 13.1172 1.61365 12.5646 2.1808C12.4774 2.26805 12.3901 2.36258 12.2956 2.44983C11.0304 3.715 9.76527 4.98017 8.5001 6.24534C8.42739 6.31805 8.33286 6.37622 8.23834 6.4562C8.34741 6.57254 8.41285 6.65252 8.48556 6.72523C9.83798 8.07765 11.1977 9.43007 12.5501 10.7898C13.1609 11.4078 13.1463 12.2294 12.521 12.7166C12.0702 13.0729 11.474 13.0802 11.0159 12.7311C10.9068 12.6512 10.8123 12.5566 10.7178 12.4621C9.40171 11.1461 8.09292 9.83726 6.77685 8.52119C6.69687 8.44121 6.63143 8.33941 6.53691 8.23034C6.42057 8.33941 6.34786 8.40485 6.27515 8.47756C4.92272 9.82998 3.5703 11.1897 2.21061 12.5421C1.60711 13.1456 0.800019 13.1456 0.298314 12.5494C-0.0797828 12.0913 -0.0943257 11.466 0.269229 11.0006C0.349211 10.8916 0.451006 10.797 0.54553 10.7025C1.8616 9.38645 3.17039 8.07765 4.48646 6.76158C4.55917 6.68887 4.65369 6.62344 4.76276 6.53618C4.66097 6.42712 4.59553 6.3544 4.52282 6.28169C3.17039 4.92927 1.8107 3.57685 0.458277 2.21715C-0.0288854 1.72999 -0.130681 1.17012 0.167434 0.639328C0.523717 0.00674349 1.35262 -0.182305 1.94885 0.239418C2.06519 0.326671 2.17425 0.428467 2.27605 0.530262C3.60666 1.8536 4.93 3.18421 6.26061 4.50755C6.33332 4.56571 6.4133 4.63843 6.50782 4.73295Z" fill="#5C3F2C"/>
</svg>
