<svg width="26" height="26" viewBox="0 0 26 26" fill="none" xmlns="http://www.w3.org/2000/svg">
<path d="M13.13 13.845C13.0437 13.8342 12.9563 13.8342 12.87 13.845C11.9513 13.8141 11.0805 13.4272 10.4418 12.7662C9.80297 12.1052 9.44615 11.2217 9.44667 10.3025C9.44667 8.34167 11.0283 6.74917 13 6.74917C13.9311 6.74755 14.8255 7.11188 15.4904 7.7636C16.1553 8.41533 16.5375 9.30225 16.5546 10.2332C16.5716 11.1641 16.2222 12.0644 15.5816 12.74C14.941 13.4157 14.0605 13.8125 13.13 13.845ZM20.3017 20.995C18.3108 22.8248 15.704 23.8381 13 23.8333C10.1833 23.8333 7.62667 22.7608 5.69833 20.995C5.80667 19.9767 6.45667 18.98 7.61583 18.2C10.5842 16.2283 15.4375 16.2283 18.3842 18.2C19.5433 18.98 20.1933 19.9767 20.3017 20.995Z" stroke="white" stroke-width="1.5" stroke-linecap="round" stroke-linejoin="round"/>
<path d="M13 23.8333C18.9832 23.8333 23.8333 18.9832 23.8333 13C23.8333 7.01675 18.9832 2.16666 13 2.16666C7.01674 2.16666 2.16666 7.01675 2.16666 13C2.16666 18.9832 7.01674 23.8333 13 23.8333Z" stroke="white" stroke-width="1.5" stroke-linecap="round" stroke-linejoin="round"/>
</svg>
