<svg width="20" height="20" viewBox="0 0 20 20" fill="none" xmlns="http://www.w3.org/2000/svg">
<path fill-rule="evenodd" clip-rule="evenodd" d="M10 0C4.47715 0 0 4.47715 0 10C0 15.5228 4.47715 20 10 20C15.5228 20 20 15.5228 20 10C20 4.47715 15.5228 0 10 0ZM15.5478 7.66422C15.7563 7.47096 15.9413 7.27226 16 6.99734V6.76325C15.9982 6.75829 15.9964 6.75343 15.9947 6.74864C15.9877 6.72981 15.9812 6.71201 15.9765 6.69248C15.8855 6.37129 15.68 6.14537 15.3335 6.04466C14.9371 5.93034 14.6053 6.04194 14.3205 6.30596C12.3533 8.13239 10.3831 9.95882 8.41288 11.7852C8.39474 11.8021 8.37996 11.822 8.35953 11.8496C8.3469 11.8666 8.33212 11.8865 8.31305 11.9105C8.29532 11.8868 8.28136 11.8663 8.26911 11.8483C8.24889 11.8186 8.23333 11.7957 8.21322 11.7771C7.3676 10.9904 6.51904 10.2038 5.67048 9.41715C5.29465 9.06874 4.7632 9.01975 4.38737 9.29194C3.90289 9.64307 3.86766 10.2365 4.31103 10.6502C5.40916 11.6736 6.51317 12.6944 7.62011 13.7124C7.72875 13.8131 7.87262 13.9002 8.01943 13.9465C8.41876 14.0771 8.75642 13.9601 9.05004 13.6879C11.214 11.6791 13.3809 9.67029 15.5478 7.66422Z" fill="white"/>
</svg>
