<svg id="圖層_1" data-name="圖層 1" xmlns="http://www.w3.org/2000/svg" xmlns:xlink="http://www.w3.org/1999/xlink" viewBox="0 0 50 55.9"><defs><style>.cls-1{fill:none;}.cls-2{clip-path:url(#clip-path);}.cls-3{fill:#fff;}</style><clipPath id="clip-path"><rect class="cls-1" x="-269.3" y="-810.2" width="1040" height="479.22"/></clipPath></defs><title>2020-08-11-最新消息-清稿-v3</title><g class="cls-2"><rect class="cls-3" x="-269.3" y="-810.2" width="1040" height="909.37"/></g><path class="cls-3" d="M39.7,35.3A9.9,9.9,0,0,0,32.8,38L20.3,30.5a11,11,0,0,0,0-5.1l12.5-7.5a9.9,9.9,0,0,0,6.9,2.7A10.3,10.3,0,1,0,29.4,10.3a10.1,10.1,0,0,0,.3,2.5L17.2,20.3a10.4,10.4,0,0,0-6.9-2.7,10.3,10.3,0,0,0,0,20.6,9.9,9.9,0,0,0,6.9-2.7L29.7,43a11.5,11.5,0,0,0-.3,2.6A10.3,10.3,0,1,0,39.7,35.3Z"/></svg>